%TF.GenerationSoftware,KiCad,Pcbnew,8.0.2*%
%TF.CreationDate,2024-07-01T04:04:09-07:00*%
%TF.ProjectId,waveform-generator-board,77617665-666f-4726-9d2d-67656e657261,rev?*%
%TF.SameCoordinates,Original*%
%TF.FileFunction,Legend,Top*%
%TF.FilePolarity,Positive*%
%FSLAX46Y46*%
G04 Gerber Fmt 4.6, Leading zero omitted, Abs format (unit mm)*
G04 Created by KiCad (PCBNEW 8.0.2) date 2024-07-01 04:04:09*
%MOMM*%
%LPD*%
G01*
G04 APERTURE LIST*
G04 Aperture macros list*
%AMRoundRect*
0 Rectangle with rounded corners*
0 $1 Rounding radius*
0 $2 $3 $4 $5 $6 $7 $8 $9 X,Y pos of 4 corners*
0 Add a 4 corners polygon primitive as box body*
4,1,4,$2,$3,$4,$5,$6,$7,$8,$9,$2,$3,0*
0 Add four circle primitives for the rounded corners*
1,1,$1+$1,$2,$3*
1,1,$1+$1,$4,$5*
1,1,$1+$1,$6,$7*
1,1,$1+$1,$8,$9*
0 Add four rect primitives between the rounded corners*
20,1,$1+$1,$2,$3,$4,$5,0*
20,1,$1+$1,$4,$5,$6,$7,0*
20,1,$1+$1,$6,$7,$8,$9,0*
20,1,$1+$1,$8,$9,$2,$3,0*%
%AMFreePoly0*
4,1,19,0.500000,-0.750000,0.000000,-0.750000,0.000000,-0.744911,-0.071157,-0.744911,-0.207708,-0.704816,-0.327430,-0.627875,-0.420627,-0.520320,-0.479746,-0.390866,-0.500000,-0.250000,-0.500000,0.250000,-0.479746,0.390866,-0.420627,0.520320,-0.327430,0.627875,-0.207708,0.704816,-0.071157,0.744911,0.000000,0.744911,0.000000,0.750000,0.500000,0.750000,0.500000,-0.750000,0.500000,-0.750000,
$1*%
%AMFreePoly1*
4,1,19,0.000000,0.744911,0.071157,0.744911,0.207708,0.704816,0.327430,0.627875,0.420627,0.520320,0.479746,0.390866,0.500000,0.250000,0.500000,-0.250000,0.479746,-0.390866,0.420627,-0.520320,0.327430,-0.627875,0.207708,-0.704816,0.071157,-0.744911,0.000000,-0.744911,0.000000,-0.750000,-0.500000,-0.750000,-0.500000,0.750000,0.000000,0.750000,0.000000,0.744911,0.000000,0.744911,
$1*%
G04 Aperture macros list end*
%ADD10C,0.100000*%
%ADD11C,0.150000*%
%ADD12C,0.120000*%
%ADD13RoundRect,0.150000X0.150000X-0.825000X0.150000X0.825000X-0.150000X0.825000X-0.150000X-0.825000X0*%
%ADD14RoundRect,0.250000X0.325000X0.650000X-0.325000X0.650000X-0.325000X-0.650000X0.325000X-0.650000X0*%
%ADD15C,2.400000*%
%ADD16O,2.400000X2.400000*%
%ADD17C,2.800000*%
%ADD18RoundRect,0.150000X0.512500X0.150000X-0.512500X0.150000X-0.512500X-0.150000X0.512500X-0.150000X0*%
%ADD19RoundRect,0.250000X-1.075000X0.362500X-1.075000X-0.362500X1.075000X-0.362500X1.075000X0.362500X0*%
%ADD20RoundRect,0.135000X0.185000X-0.135000X0.185000X0.135000X-0.185000X0.135000X-0.185000X-0.135000X0*%
%ADD21RoundRect,0.135000X-0.185000X0.135000X-0.185000X-0.135000X0.185000X-0.135000X0.185000X0.135000X0*%
%ADD22RoundRect,0.218750X-0.256250X0.218750X-0.256250X-0.218750X0.256250X-0.218750X0.256250X0.218750X0*%
%ADD23RoundRect,0.250000X-0.325000X-0.650000X0.325000X-0.650000X0.325000X0.650000X-0.325000X0.650000X0*%
%ADD24R,1.700000X1.700000*%
%ADD25O,1.700000X1.700000*%
%ADD26RoundRect,0.250000X-0.650000X0.325000X-0.650000X-0.325000X0.650000X-0.325000X0.650000X0.325000X0*%
%ADD27C,1.440000*%
%ADD28RoundRect,0.225000X0.250000X-0.225000X0.250000X0.225000X-0.250000X0.225000X-0.250000X-0.225000X0*%
%ADD29RoundRect,0.250000X-0.350000X0.850000X-0.350000X-0.850000X0.350000X-0.850000X0.350000X0.850000X0*%
%ADD30RoundRect,0.249997X-2.650003X2.950003X-2.650003X-2.950003X2.650003X-2.950003X2.650003X2.950003X0*%
%ADD31RoundRect,0.225000X0.225000X0.250000X-0.225000X0.250000X-0.225000X-0.250000X0.225000X-0.250000X0*%
%ADD32C,1.600000*%
%ADD33O,1.600000X1.600000*%
%ADD34RoundRect,0.250000X0.650000X-0.325000X0.650000X0.325000X-0.650000X0.325000X-0.650000X-0.325000X0*%
%ADD35RoundRect,0.135000X0.135000X0.185000X-0.135000X0.185000X-0.135000X-0.185000X0.135000X-0.185000X0*%
%ADD36RoundRect,0.250000X-0.625000X0.312500X-0.625000X-0.312500X0.625000X-0.312500X0.625000X0.312500X0*%
%ADD37C,6.400000*%
%ADD38RoundRect,0.250000X0.625000X-0.312500X0.625000X0.312500X-0.625000X0.312500X-0.625000X-0.312500X0*%
%ADD39RoundRect,0.225000X-0.225000X-0.250000X0.225000X-0.250000X0.225000X0.250000X-0.225000X0.250000X0*%
%ADD40RoundRect,0.150000X-0.512500X-0.150000X0.512500X-0.150000X0.512500X0.150000X-0.512500X0.150000X0*%
%ADD41RoundRect,0.225000X-0.250000X0.225000X-0.250000X-0.225000X0.250000X-0.225000X0.250000X0.225000X0*%
%ADD42FreePoly0,270.000000*%
%ADD43FreePoly1,270.000000*%
%ADD44R,2.000000X1.905000*%
%ADD45O,2.000000X1.905000*%
%ADD46RoundRect,0.150000X-0.825000X-0.150000X0.825000X-0.150000X0.825000X0.150000X-0.825000X0.150000X0*%
%ADD47RoundRect,0.250000X-1.000000X1.950000X-1.000000X-1.950000X1.000000X-1.950000X1.000000X1.950000X0*%
%ADD48RoundRect,0.150000X-0.150000X0.825000X-0.150000X-0.825000X0.150000X-0.825000X0.150000X0.825000X0*%
G04 APERTURE END LIST*
D10*
X115624000Y-81232000D02*
X125530000Y-81232000D01*
X125530000Y-88052000D01*
X115624000Y-88052000D01*
X115624000Y-81232000D01*
X178870000Y-93224000D02*
X197285000Y-93224000D01*
X197285000Y-104654000D01*
X178870000Y-104654000D01*
X178870000Y-93224000D01*
X161671000Y-98806000D02*
X161163000Y-98806000D01*
X161417000Y-98425000D01*
X161671000Y-98806000D01*
G36*
X161671000Y-98806000D02*
G01*
X161163000Y-98806000D01*
X161417000Y-98425000D01*
X161671000Y-98806000D01*
G37*
X161417000Y-99949000D02*
X161163000Y-99568000D01*
X161671000Y-99568000D01*
X161417000Y-99949000D01*
G36*
X161417000Y-99949000D02*
G01*
X161163000Y-99568000D01*
X161671000Y-99568000D01*
X161417000Y-99949000D01*
G37*
X160858200Y-99187000D02*
X161958200Y-99187000D01*
X162358200Y-99187000D02*
X163458200Y-99187000D01*
X163858200Y-99187000D02*
X164958200Y-99187000D01*
X165358200Y-99187000D02*
X166458200Y-99187000D01*
X166858200Y-99187000D02*
X167958200Y-99187000D01*
X168358200Y-99187000D02*
X169458200Y-99187000D01*
X169858200Y-99187000D02*
X170958200Y-99187000D01*
X171358200Y-99187000D02*
X172458200Y-99187000D01*
X172858200Y-99187000D02*
X173958200Y-99187000D01*
X174358200Y-99187000D02*
X175458200Y-99187000D01*
X175858200Y-99187000D02*
X176958200Y-99187000D01*
X177358200Y-99187000D02*
X178130200Y-99187000D01*
X183137419Y-105696265D02*
X183137419Y-106267693D01*
X183137419Y-105981979D02*
X182137419Y-105981979D01*
X182137419Y-105981979D02*
X182280276Y-106077217D01*
X182280276Y-106077217D02*
X182375514Y-106172455D01*
X182375514Y-106172455D02*
X182423133Y-106267693D01*
X109429800Y-106048734D02*
X109477419Y-105953496D01*
X109477419Y-105953496D02*
X109477419Y-105763020D01*
X109477419Y-105763020D02*
X109429800Y-105667782D01*
X109429800Y-105667782D02*
X109334561Y-105620163D01*
X109334561Y-105620163D02*
X109286942Y-105620163D01*
X109286942Y-105620163D02*
X109191704Y-105667782D01*
X109191704Y-105667782D02*
X109144085Y-105763020D01*
X109144085Y-105763020D02*
X109144085Y-105905877D01*
X109144085Y-105905877D02*
X109096466Y-106001115D01*
X109096466Y-106001115D02*
X109001228Y-106048734D01*
X109001228Y-106048734D02*
X108953609Y-106048734D01*
X108953609Y-106048734D02*
X108858371Y-106001115D01*
X108858371Y-106001115D02*
X108810752Y-105905877D01*
X108810752Y-105905877D02*
X108810752Y-105763020D01*
X108810752Y-105763020D02*
X108858371Y-105667782D01*
X109429800Y-104810639D02*
X109477419Y-104905877D01*
X109477419Y-104905877D02*
X109477419Y-105096353D01*
X109477419Y-105096353D02*
X109429800Y-105191591D01*
X109429800Y-105191591D02*
X109334561Y-105239210D01*
X109334561Y-105239210D02*
X108953609Y-105239210D01*
X108953609Y-105239210D02*
X108858371Y-105191591D01*
X108858371Y-105191591D02*
X108810752Y-105096353D01*
X108810752Y-105096353D02*
X108810752Y-104905877D01*
X108810752Y-104905877D02*
X108858371Y-104810639D01*
X108858371Y-104810639D02*
X108953609Y-104763020D01*
X108953609Y-104763020D02*
X109048847Y-104763020D01*
X109048847Y-104763020D02*
X109144085Y-105239210D01*
X109477419Y-104334448D02*
X108810752Y-104334448D01*
X109001228Y-104334448D02*
X108905990Y-104286829D01*
X108905990Y-104286829D02*
X108858371Y-104239210D01*
X108858371Y-104239210D02*
X108810752Y-104143972D01*
X108810752Y-104143972D02*
X108810752Y-104048734D01*
X109572657Y-103953496D02*
X109572657Y-103191591D01*
X109429800Y-102524924D02*
X109477419Y-102620162D01*
X109477419Y-102620162D02*
X109477419Y-102810638D01*
X109477419Y-102810638D02*
X109429800Y-102905876D01*
X109429800Y-102905876D02*
X109382180Y-102953495D01*
X109382180Y-102953495D02*
X109286942Y-103001114D01*
X109286942Y-103001114D02*
X109001228Y-103001114D01*
X109001228Y-103001114D02*
X108905990Y-102953495D01*
X108905990Y-102953495D02*
X108858371Y-102905876D01*
X108858371Y-102905876D02*
X108810752Y-102810638D01*
X108810752Y-102810638D02*
X108810752Y-102620162D01*
X108810752Y-102620162D02*
X108858371Y-102524924D01*
X109477419Y-101953495D02*
X109429800Y-102048733D01*
X109429800Y-102048733D02*
X109334561Y-102096352D01*
X109334561Y-102096352D02*
X108477419Y-102096352D01*
X109477419Y-101572542D02*
X108477419Y-101572542D01*
X109096466Y-101477304D02*
X109477419Y-101191590D01*
X108810752Y-101191590D02*
X109191704Y-101572542D01*
X111969800Y-106048734D02*
X112017419Y-105953496D01*
X112017419Y-105953496D02*
X112017419Y-105763020D01*
X112017419Y-105763020D02*
X111969800Y-105667782D01*
X111969800Y-105667782D02*
X111874561Y-105620163D01*
X111874561Y-105620163D02*
X111826942Y-105620163D01*
X111826942Y-105620163D02*
X111731704Y-105667782D01*
X111731704Y-105667782D02*
X111684085Y-105763020D01*
X111684085Y-105763020D02*
X111684085Y-105905877D01*
X111684085Y-105905877D02*
X111636466Y-106001115D01*
X111636466Y-106001115D02*
X111541228Y-106048734D01*
X111541228Y-106048734D02*
X111493609Y-106048734D01*
X111493609Y-106048734D02*
X111398371Y-106001115D01*
X111398371Y-106001115D02*
X111350752Y-105905877D01*
X111350752Y-105905877D02*
X111350752Y-105763020D01*
X111350752Y-105763020D02*
X111398371Y-105667782D01*
X111350752Y-105334448D02*
X111350752Y-104953496D01*
X111017419Y-105191591D02*
X111874561Y-105191591D01*
X111874561Y-105191591D02*
X111969800Y-105143972D01*
X111969800Y-105143972D02*
X112017419Y-105048734D01*
X112017419Y-105048734D02*
X112017419Y-104953496D01*
X112017419Y-104477305D02*
X111969800Y-104572543D01*
X111969800Y-104572543D02*
X111922180Y-104620162D01*
X111922180Y-104620162D02*
X111826942Y-104667781D01*
X111826942Y-104667781D02*
X111541228Y-104667781D01*
X111541228Y-104667781D02*
X111445990Y-104620162D01*
X111445990Y-104620162D02*
X111398371Y-104572543D01*
X111398371Y-104572543D02*
X111350752Y-104477305D01*
X111350752Y-104477305D02*
X111350752Y-104334448D01*
X111350752Y-104334448D02*
X111398371Y-104239210D01*
X111398371Y-104239210D02*
X111445990Y-104191591D01*
X111445990Y-104191591D02*
X111541228Y-104143972D01*
X111541228Y-104143972D02*
X111826942Y-104143972D01*
X111826942Y-104143972D02*
X111922180Y-104191591D01*
X111922180Y-104191591D02*
X111969800Y-104239210D01*
X111969800Y-104239210D02*
X112017419Y-104334448D01*
X112017419Y-104334448D02*
X112017419Y-104477305D01*
X112017419Y-103715400D02*
X111350752Y-103715400D01*
X111541228Y-103715400D02*
X111445990Y-103667781D01*
X111445990Y-103667781D02*
X111398371Y-103620162D01*
X111398371Y-103620162D02*
X111350752Y-103524924D01*
X111350752Y-103524924D02*
X111350752Y-103429686D01*
X111969800Y-102715400D02*
X112017419Y-102810638D01*
X112017419Y-102810638D02*
X112017419Y-103001114D01*
X112017419Y-103001114D02*
X111969800Y-103096352D01*
X111969800Y-103096352D02*
X111874561Y-103143971D01*
X111874561Y-103143971D02*
X111493609Y-103143971D01*
X111493609Y-103143971D02*
X111398371Y-103096352D01*
X111398371Y-103096352D02*
X111350752Y-103001114D01*
X111350752Y-103001114D02*
X111350752Y-102810638D01*
X111350752Y-102810638D02*
X111398371Y-102715400D01*
X111398371Y-102715400D02*
X111493609Y-102667781D01*
X111493609Y-102667781D02*
X111588847Y-102667781D01*
X111588847Y-102667781D02*
X111684085Y-103143971D01*
X183137419Y-91696265D02*
X183137419Y-92267693D01*
X183137419Y-91981979D02*
X182137419Y-91981979D01*
X182137419Y-91981979D02*
X182280276Y-92077217D01*
X182280276Y-92077217D02*
X182375514Y-92172455D01*
X182375514Y-92172455D02*
X182423133Y-92267693D01*
X106889800Y-96003884D02*
X106937419Y-95908646D01*
X106937419Y-95908646D02*
X106937419Y-95718170D01*
X106937419Y-95718170D02*
X106889800Y-95622932D01*
X106889800Y-95622932D02*
X106794561Y-95575313D01*
X106794561Y-95575313D02*
X106746942Y-95575313D01*
X106746942Y-95575313D02*
X106651704Y-95622932D01*
X106651704Y-95622932D02*
X106604085Y-95718170D01*
X106604085Y-95718170D02*
X106604085Y-95861027D01*
X106604085Y-95861027D02*
X106556466Y-95956265D01*
X106556466Y-95956265D02*
X106461228Y-96003884D01*
X106461228Y-96003884D02*
X106413609Y-96003884D01*
X106413609Y-96003884D02*
X106318371Y-95956265D01*
X106318371Y-95956265D02*
X106270752Y-95861027D01*
X106270752Y-95861027D02*
X106270752Y-95718170D01*
X106270752Y-95718170D02*
X106318371Y-95622932D01*
X106889800Y-94765789D02*
X106937419Y-94861027D01*
X106937419Y-94861027D02*
X106937419Y-95051503D01*
X106937419Y-95051503D02*
X106889800Y-95146741D01*
X106889800Y-95146741D02*
X106794561Y-95194360D01*
X106794561Y-95194360D02*
X106413609Y-95194360D01*
X106413609Y-95194360D02*
X106318371Y-95146741D01*
X106318371Y-95146741D02*
X106270752Y-95051503D01*
X106270752Y-95051503D02*
X106270752Y-94861027D01*
X106270752Y-94861027D02*
X106318371Y-94765789D01*
X106318371Y-94765789D02*
X106413609Y-94718170D01*
X106413609Y-94718170D02*
X106508847Y-94718170D01*
X106508847Y-94718170D02*
X106604085Y-95194360D01*
X106937419Y-94289598D02*
X106270752Y-94289598D01*
X106461228Y-94289598D02*
X106365990Y-94241979D01*
X106365990Y-94241979D02*
X106318371Y-94194360D01*
X106318371Y-94194360D02*
X106270752Y-94099122D01*
X106270752Y-94099122D02*
X106270752Y-94003884D01*
X107032657Y-93908646D02*
X107032657Y-93146741D01*
X106937419Y-92908645D02*
X106270752Y-92908645D01*
X105937419Y-92908645D02*
X105985038Y-92956264D01*
X105985038Y-92956264D02*
X106032657Y-92908645D01*
X106032657Y-92908645D02*
X105985038Y-92861026D01*
X105985038Y-92861026D02*
X105937419Y-92908645D01*
X105937419Y-92908645D02*
X106032657Y-92908645D01*
X106270752Y-92432455D02*
X106937419Y-92432455D01*
X106365990Y-92432455D02*
X106318371Y-92384836D01*
X106318371Y-92384836D02*
X106270752Y-92289598D01*
X106270752Y-92289598D02*
X106270752Y-92146741D01*
X106270752Y-92146741D02*
X106318371Y-92051503D01*
X106318371Y-92051503D02*
X106413609Y-92003884D01*
X106413609Y-92003884D02*
X106937419Y-92003884D01*
D11*
X193294819Y-103260065D02*
X193247200Y-103355303D01*
X193247200Y-103355303D02*
X193199580Y-103402922D01*
X193199580Y-103402922D02*
X193104342Y-103450541D01*
X193104342Y-103450541D02*
X192818628Y-103450541D01*
X192818628Y-103450541D02*
X192723390Y-103402922D01*
X192723390Y-103402922D02*
X192675771Y-103355303D01*
X192675771Y-103355303D02*
X192628152Y-103260065D01*
X192628152Y-103260065D02*
X192628152Y-103117208D01*
X192628152Y-103117208D02*
X192675771Y-103021970D01*
X192675771Y-103021970D02*
X192723390Y-102974351D01*
X192723390Y-102974351D02*
X192818628Y-102926732D01*
X192818628Y-102926732D02*
X193104342Y-102926732D01*
X193104342Y-102926732D02*
X193199580Y-102974351D01*
X193199580Y-102974351D02*
X193247200Y-103021970D01*
X193247200Y-103021970D02*
X193294819Y-103117208D01*
X193294819Y-103117208D02*
X193294819Y-103260065D01*
X192628152Y-102069589D02*
X193294819Y-102069589D01*
X192628152Y-102498160D02*
X193151961Y-102498160D01*
X193151961Y-102498160D02*
X193247200Y-102450541D01*
X193247200Y-102450541D02*
X193294819Y-102355303D01*
X193294819Y-102355303D02*
X193294819Y-102212446D01*
X193294819Y-102212446D02*
X193247200Y-102117208D01*
X193247200Y-102117208D02*
X193199580Y-102069589D01*
X192628152Y-101736255D02*
X192628152Y-101355303D01*
X192294819Y-101593398D02*
X193151961Y-101593398D01*
X193151961Y-101593398D02*
X193247200Y-101545779D01*
X193247200Y-101545779D02*
X193294819Y-101450541D01*
X193294819Y-101450541D02*
X193294819Y-101355303D01*
X192628152Y-100593398D02*
X193294819Y-100593398D01*
X192247200Y-100831493D02*
X192961485Y-101069588D01*
X192961485Y-101069588D02*
X192961485Y-100450541D01*
D10*
X195522419Y-102462810D02*
X195522419Y-102272334D01*
X195522419Y-102272334D02*
X195570038Y-102177096D01*
X195570038Y-102177096D02*
X195665276Y-102081858D01*
X195665276Y-102081858D02*
X195855752Y-102034239D01*
X195855752Y-102034239D02*
X196189085Y-102034239D01*
X196189085Y-102034239D02*
X196379561Y-102081858D01*
X196379561Y-102081858D02*
X196474800Y-102177096D01*
X196474800Y-102177096D02*
X196522419Y-102272334D01*
X196522419Y-102272334D02*
X196522419Y-102462810D01*
X196522419Y-102462810D02*
X196474800Y-102558048D01*
X196474800Y-102558048D02*
X196379561Y-102653286D01*
X196379561Y-102653286D02*
X196189085Y-102700905D01*
X196189085Y-102700905D02*
X195855752Y-102700905D01*
X195855752Y-102700905D02*
X195665276Y-102653286D01*
X195665276Y-102653286D02*
X195570038Y-102558048D01*
X195570038Y-102558048D02*
X195522419Y-102462810D01*
X195855752Y-101177096D02*
X196522419Y-101177096D01*
X195855752Y-101605667D02*
X196379561Y-101605667D01*
X196379561Y-101605667D02*
X196474800Y-101558048D01*
X196474800Y-101558048D02*
X196522419Y-101462810D01*
X196522419Y-101462810D02*
X196522419Y-101319953D01*
X196522419Y-101319953D02*
X196474800Y-101224715D01*
X196474800Y-101224715D02*
X196427180Y-101177096D01*
X195855752Y-100843762D02*
X195855752Y-100462810D01*
X195522419Y-100700905D02*
X196379561Y-100700905D01*
X196379561Y-100700905D02*
X196474800Y-100653286D01*
X196474800Y-100653286D02*
X196522419Y-100558048D01*
X196522419Y-100558048D02*
X196522419Y-100462810D01*
X196474800Y-99415190D02*
X196522419Y-99272333D01*
X196522419Y-99272333D02*
X196522419Y-99034238D01*
X196522419Y-99034238D02*
X196474800Y-98939000D01*
X196474800Y-98939000D02*
X196427180Y-98891381D01*
X196427180Y-98891381D02*
X196331942Y-98843762D01*
X196331942Y-98843762D02*
X196236704Y-98843762D01*
X196236704Y-98843762D02*
X196141466Y-98891381D01*
X196141466Y-98891381D02*
X196093847Y-98939000D01*
X196093847Y-98939000D02*
X196046228Y-99034238D01*
X196046228Y-99034238D02*
X195998609Y-99224714D01*
X195998609Y-99224714D02*
X195950990Y-99319952D01*
X195950990Y-99319952D02*
X195903371Y-99367571D01*
X195903371Y-99367571D02*
X195808133Y-99415190D01*
X195808133Y-99415190D02*
X195712895Y-99415190D01*
X195712895Y-99415190D02*
X195617657Y-99367571D01*
X195617657Y-99367571D02*
X195570038Y-99319952D01*
X195570038Y-99319952D02*
X195522419Y-99224714D01*
X195522419Y-99224714D02*
X195522419Y-98986619D01*
X195522419Y-98986619D02*
X195570038Y-98843762D01*
X196474800Y-98034238D02*
X196522419Y-98129476D01*
X196522419Y-98129476D02*
X196522419Y-98319952D01*
X196522419Y-98319952D02*
X196474800Y-98415190D01*
X196474800Y-98415190D02*
X196379561Y-98462809D01*
X196379561Y-98462809D02*
X195998609Y-98462809D01*
X195998609Y-98462809D02*
X195903371Y-98415190D01*
X195903371Y-98415190D02*
X195855752Y-98319952D01*
X195855752Y-98319952D02*
X195855752Y-98129476D01*
X195855752Y-98129476D02*
X195903371Y-98034238D01*
X195903371Y-98034238D02*
X195998609Y-97986619D01*
X195998609Y-97986619D02*
X196093847Y-97986619D01*
X196093847Y-97986619D02*
X196189085Y-98462809D01*
X196522419Y-97415190D02*
X196474800Y-97510428D01*
X196474800Y-97510428D02*
X196379561Y-97558047D01*
X196379561Y-97558047D02*
X195522419Y-97558047D01*
X196474800Y-96653285D02*
X196522419Y-96748523D01*
X196522419Y-96748523D02*
X196522419Y-96938999D01*
X196522419Y-96938999D02*
X196474800Y-97034237D01*
X196474800Y-97034237D02*
X196379561Y-97081856D01*
X196379561Y-97081856D02*
X195998609Y-97081856D01*
X195998609Y-97081856D02*
X195903371Y-97034237D01*
X195903371Y-97034237D02*
X195855752Y-96938999D01*
X195855752Y-96938999D02*
X195855752Y-96748523D01*
X195855752Y-96748523D02*
X195903371Y-96653285D01*
X195903371Y-96653285D02*
X195998609Y-96605666D01*
X195998609Y-96605666D02*
X196093847Y-96605666D01*
X196093847Y-96605666D02*
X196189085Y-97081856D01*
X196474800Y-95748523D02*
X196522419Y-95843761D01*
X196522419Y-95843761D02*
X196522419Y-96034237D01*
X196522419Y-96034237D02*
X196474800Y-96129475D01*
X196474800Y-96129475D02*
X196427180Y-96177094D01*
X196427180Y-96177094D02*
X196331942Y-96224713D01*
X196331942Y-96224713D02*
X196046228Y-96224713D01*
X196046228Y-96224713D02*
X195950990Y-96177094D01*
X195950990Y-96177094D02*
X195903371Y-96129475D01*
X195903371Y-96129475D02*
X195855752Y-96034237D01*
X195855752Y-96034237D02*
X195855752Y-95843761D01*
X195855752Y-95843761D02*
X195903371Y-95748523D01*
X195855752Y-95462808D02*
X195855752Y-95081856D01*
X195522419Y-95319951D02*
X196379561Y-95319951D01*
X196379561Y-95319951D02*
X196474800Y-95272332D01*
X196474800Y-95272332D02*
X196522419Y-95177094D01*
X196522419Y-95177094D02*
X196522419Y-95081856D01*
X192088496Y-91745038D02*
X191993258Y-91697419D01*
X191993258Y-91697419D02*
X191850401Y-91697419D01*
X191850401Y-91697419D02*
X191707544Y-91745038D01*
X191707544Y-91745038D02*
X191612306Y-91840276D01*
X191612306Y-91840276D02*
X191564687Y-91935514D01*
X191564687Y-91935514D02*
X191517068Y-92125990D01*
X191517068Y-92125990D02*
X191517068Y-92268847D01*
X191517068Y-92268847D02*
X191564687Y-92459323D01*
X191564687Y-92459323D02*
X191612306Y-92554561D01*
X191612306Y-92554561D02*
X191707544Y-92649800D01*
X191707544Y-92649800D02*
X191850401Y-92697419D01*
X191850401Y-92697419D02*
X191945639Y-92697419D01*
X191945639Y-92697419D02*
X192088496Y-92649800D01*
X192088496Y-92649800D02*
X192136115Y-92602180D01*
X192136115Y-92602180D02*
X192136115Y-92268847D01*
X192136115Y-92268847D02*
X191945639Y-92268847D01*
X192564687Y-92697419D02*
X192564687Y-91697419D01*
X192564687Y-91697419D02*
X193136115Y-92697419D01*
X193136115Y-92697419D02*
X193136115Y-91697419D01*
X193612306Y-92697419D02*
X193612306Y-91697419D01*
X193612306Y-91697419D02*
X193850401Y-91697419D01*
X193850401Y-91697419D02*
X193993258Y-91745038D01*
X193993258Y-91745038D02*
X194088496Y-91840276D01*
X194088496Y-91840276D02*
X194136115Y-91935514D01*
X194136115Y-91935514D02*
X194183734Y-92125990D01*
X194183734Y-92125990D02*
X194183734Y-92268847D01*
X194183734Y-92268847D02*
X194136115Y-92459323D01*
X194136115Y-92459323D02*
X194088496Y-92554561D01*
X194088496Y-92554561D02*
X193993258Y-92649800D01*
X193993258Y-92649800D02*
X193850401Y-92697419D01*
X193850401Y-92697419D02*
X193612306Y-92697419D01*
D11*
X161203152Y-108496649D02*
X162012676Y-108496649D01*
X162012676Y-108496649D02*
X162107914Y-108544268D01*
X162107914Y-108544268D02*
X162155533Y-108591887D01*
X162155533Y-108591887D02*
X162203152Y-108687125D01*
X162203152Y-108687125D02*
X162203152Y-108829982D01*
X162203152Y-108829982D02*
X162155533Y-108925220D01*
X161822200Y-108496649D02*
X161869819Y-108591887D01*
X161869819Y-108591887D02*
X161869819Y-108782363D01*
X161869819Y-108782363D02*
X161822200Y-108877601D01*
X161822200Y-108877601D02*
X161774580Y-108925220D01*
X161774580Y-108925220D02*
X161679342Y-108972839D01*
X161679342Y-108972839D02*
X161393628Y-108972839D01*
X161393628Y-108972839D02*
X161298390Y-108925220D01*
X161298390Y-108925220D02*
X161250771Y-108877601D01*
X161250771Y-108877601D02*
X161203152Y-108782363D01*
X161203152Y-108782363D02*
X161203152Y-108591887D01*
X161203152Y-108591887D02*
X161250771Y-108496649D01*
X161869819Y-107591887D02*
X161346009Y-107591887D01*
X161346009Y-107591887D02*
X161250771Y-107639506D01*
X161250771Y-107639506D02*
X161203152Y-107734744D01*
X161203152Y-107734744D02*
X161203152Y-107925220D01*
X161203152Y-107925220D02*
X161250771Y-108020458D01*
X161822200Y-107591887D02*
X161869819Y-107687125D01*
X161869819Y-107687125D02*
X161869819Y-107925220D01*
X161869819Y-107925220D02*
X161822200Y-108020458D01*
X161822200Y-108020458D02*
X161726961Y-108068077D01*
X161726961Y-108068077D02*
X161631723Y-108068077D01*
X161631723Y-108068077D02*
X161536485Y-108020458D01*
X161536485Y-108020458D02*
X161488866Y-107925220D01*
X161488866Y-107925220D02*
X161488866Y-107687125D01*
X161488866Y-107687125D02*
X161441247Y-107591887D01*
X161869819Y-107115696D02*
X161203152Y-107115696D01*
X160869819Y-107115696D02*
X160917438Y-107163315D01*
X160917438Y-107163315D02*
X160965057Y-107115696D01*
X160965057Y-107115696D02*
X160917438Y-107068077D01*
X160917438Y-107068077D02*
X160869819Y-107115696D01*
X160869819Y-107115696D02*
X160965057Y-107115696D01*
X161203152Y-106639506D02*
X161869819Y-106639506D01*
X161298390Y-106639506D02*
X161250771Y-106591887D01*
X161250771Y-106591887D02*
X161203152Y-106496649D01*
X161203152Y-106496649D02*
X161203152Y-106353792D01*
X161203152Y-106353792D02*
X161250771Y-106258554D01*
X161250771Y-106258554D02*
X161346009Y-106210935D01*
X161346009Y-106210935D02*
X161869819Y-106210935D01*
X161869819Y-104544268D02*
X161346009Y-104544268D01*
X161346009Y-104544268D02*
X161250771Y-104591887D01*
X161250771Y-104591887D02*
X161203152Y-104687125D01*
X161203152Y-104687125D02*
X161203152Y-104877601D01*
X161203152Y-104877601D02*
X161250771Y-104972839D01*
X161822200Y-104544268D02*
X161869819Y-104639506D01*
X161869819Y-104639506D02*
X161869819Y-104877601D01*
X161869819Y-104877601D02*
X161822200Y-104972839D01*
X161822200Y-104972839D02*
X161726961Y-105020458D01*
X161726961Y-105020458D02*
X161631723Y-105020458D01*
X161631723Y-105020458D02*
X161536485Y-104972839D01*
X161536485Y-104972839D02*
X161488866Y-104877601D01*
X161488866Y-104877601D02*
X161488866Y-104639506D01*
X161488866Y-104639506D02*
X161441247Y-104544268D01*
X161869819Y-103639506D02*
X160869819Y-103639506D01*
X161822200Y-103639506D02*
X161869819Y-103734744D01*
X161869819Y-103734744D02*
X161869819Y-103925220D01*
X161869819Y-103925220D02*
X161822200Y-104020458D01*
X161822200Y-104020458D02*
X161774580Y-104068077D01*
X161774580Y-104068077D02*
X161679342Y-104115696D01*
X161679342Y-104115696D02*
X161393628Y-104115696D01*
X161393628Y-104115696D02*
X161298390Y-104068077D01*
X161298390Y-104068077D02*
X161250771Y-104020458D01*
X161250771Y-104020458D02*
X161203152Y-103925220D01*
X161203152Y-103925220D02*
X161203152Y-103734744D01*
X161203152Y-103734744D02*
X161250771Y-103639506D01*
X161203152Y-103163315D02*
X162060295Y-103163315D01*
X162060295Y-103163315D02*
X162155533Y-103210934D01*
X162155533Y-103210934D02*
X162203152Y-103306172D01*
X162203152Y-103306172D02*
X162203152Y-103353791D01*
X160869819Y-103163315D02*
X160917438Y-103210934D01*
X160917438Y-103210934D02*
X160965057Y-103163315D01*
X160965057Y-103163315D02*
X160917438Y-103115696D01*
X160917438Y-103115696D02*
X160869819Y-103163315D01*
X160869819Y-103163315D02*
X160965057Y-103163315D01*
X161203152Y-102258554D02*
X161869819Y-102258554D01*
X161203152Y-102687125D02*
X161726961Y-102687125D01*
X161726961Y-102687125D02*
X161822200Y-102639506D01*
X161822200Y-102639506D02*
X161869819Y-102544268D01*
X161869819Y-102544268D02*
X161869819Y-102401411D01*
X161869819Y-102401411D02*
X161822200Y-102306173D01*
X161822200Y-102306173D02*
X161774580Y-102258554D01*
X161822200Y-101829982D02*
X161869819Y-101734744D01*
X161869819Y-101734744D02*
X161869819Y-101544268D01*
X161869819Y-101544268D02*
X161822200Y-101449030D01*
X161822200Y-101449030D02*
X161726961Y-101401411D01*
X161726961Y-101401411D02*
X161679342Y-101401411D01*
X161679342Y-101401411D02*
X161584104Y-101449030D01*
X161584104Y-101449030D02*
X161536485Y-101544268D01*
X161536485Y-101544268D02*
X161536485Y-101687125D01*
X161536485Y-101687125D02*
X161488866Y-101782363D01*
X161488866Y-101782363D02*
X161393628Y-101829982D01*
X161393628Y-101829982D02*
X161346009Y-101829982D01*
X161346009Y-101829982D02*
X161250771Y-101782363D01*
X161250771Y-101782363D02*
X161203152Y-101687125D01*
X161203152Y-101687125D02*
X161203152Y-101544268D01*
X161203152Y-101544268D02*
X161250771Y-101449030D01*
X161203152Y-101115696D02*
X161203152Y-100734744D01*
X160869819Y-100972839D02*
X161726961Y-100972839D01*
X161726961Y-100972839D02*
X161822200Y-100925220D01*
X161822200Y-100925220D02*
X161869819Y-100829982D01*
X161869819Y-100829982D02*
X161869819Y-100734744D01*
D10*
X187217419Y-92315312D02*
X187217419Y-91696265D01*
X187217419Y-91696265D02*
X187598371Y-92029598D01*
X187598371Y-92029598D02*
X187598371Y-91886741D01*
X187598371Y-91886741D02*
X187645990Y-91791503D01*
X187645990Y-91791503D02*
X187693609Y-91743884D01*
X187693609Y-91743884D02*
X187788847Y-91696265D01*
X187788847Y-91696265D02*
X188026942Y-91696265D01*
X188026942Y-91696265D02*
X188122180Y-91743884D01*
X188122180Y-91743884D02*
X188169800Y-91791503D01*
X188169800Y-91791503D02*
X188217419Y-91886741D01*
X188217419Y-91886741D02*
X188217419Y-92172455D01*
X188217419Y-92172455D02*
X188169800Y-92267693D01*
X188169800Y-92267693D02*
X188122180Y-92315312D01*
X137036466Y-98702693D02*
X137036466Y-97940789D01*
X137417419Y-96940789D02*
X137417419Y-97512217D01*
X137417419Y-97226503D02*
X136417419Y-97226503D01*
X136417419Y-97226503D02*
X136560276Y-97321741D01*
X136560276Y-97321741D02*
X136655514Y-97416979D01*
X136655514Y-97416979D02*
X136703133Y-97512217D01*
X136512657Y-96559836D02*
X136465038Y-96512217D01*
X136465038Y-96512217D02*
X136417419Y-96416979D01*
X136417419Y-96416979D02*
X136417419Y-96178884D01*
X136417419Y-96178884D02*
X136465038Y-96083646D01*
X136465038Y-96083646D02*
X136512657Y-96036027D01*
X136512657Y-96036027D02*
X136607895Y-95988408D01*
X136607895Y-95988408D02*
X136703133Y-95988408D01*
X136703133Y-95988408D02*
X136845990Y-96036027D01*
X136845990Y-96036027D02*
X137417419Y-96607455D01*
X137417419Y-96607455D02*
X137417419Y-95988408D01*
X136417419Y-95702693D02*
X137417419Y-95369360D01*
X137417419Y-95369360D02*
X136417419Y-95036027D01*
D11*
X189484819Y-103260065D02*
X189437200Y-103355303D01*
X189437200Y-103355303D02*
X189389580Y-103402922D01*
X189389580Y-103402922D02*
X189294342Y-103450541D01*
X189294342Y-103450541D02*
X189008628Y-103450541D01*
X189008628Y-103450541D02*
X188913390Y-103402922D01*
X188913390Y-103402922D02*
X188865771Y-103355303D01*
X188865771Y-103355303D02*
X188818152Y-103260065D01*
X188818152Y-103260065D02*
X188818152Y-103117208D01*
X188818152Y-103117208D02*
X188865771Y-103021970D01*
X188865771Y-103021970D02*
X188913390Y-102974351D01*
X188913390Y-102974351D02*
X189008628Y-102926732D01*
X189008628Y-102926732D02*
X189294342Y-102926732D01*
X189294342Y-102926732D02*
X189389580Y-102974351D01*
X189389580Y-102974351D02*
X189437200Y-103021970D01*
X189437200Y-103021970D02*
X189484819Y-103117208D01*
X189484819Y-103117208D02*
X189484819Y-103260065D01*
X188818152Y-102069589D02*
X189484819Y-102069589D01*
X188818152Y-102498160D02*
X189341961Y-102498160D01*
X189341961Y-102498160D02*
X189437200Y-102450541D01*
X189437200Y-102450541D02*
X189484819Y-102355303D01*
X189484819Y-102355303D02*
X189484819Y-102212446D01*
X189484819Y-102212446D02*
X189437200Y-102117208D01*
X189437200Y-102117208D02*
X189389580Y-102069589D01*
X188818152Y-101736255D02*
X188818152Y-101355303D01*
X188484819Y-101593398D02*
X189341961Y-101593398D01*
X189341961Y-101593398D02*
X189437200Y-101545779D01*
X189437200Y-101545779D02*
X189484819Y-101450541D01*
X189484819Y-101450541D02*
X189484819Y-101355303D01*
X188484819Y-101117207D02*
X188484819Y-100498160D01*
X188484819Y-100498160D02*
X188865771Y-100831493D01*
X188865771Y-100831493D02*
X188865771Y-100688636D01*
X188865771Y-100688636D02*
X188913390Y-100593398D01*
X188913390Y-100593398D02*
X188961009Y-100545779D01*
X188961009Y-100545779D02*
X189056247Y-100498160D01*
X189056247Y-100498160D02*
X189294342Y-100498160D01*
X189294342Y-100498160D02*
X189389580Y-100545779D01*
X189389580Y-100545779D02*
X189437200Y-100593398D01*
X189437200Y-100593398D02*
X189484819Y-100688636D01*
X189484819Y-100688636D02*
X189484819Y-100974350D01*
X189484819Y-100974350D02*
X189437200Y-101069588D01*
X189437200Y-101069588D02*
X189389580Y-101117207D01*
D10*
X109429800Y-96813409D02*
X109477419Y-96718171D01*
X109477419Y-96718171D02*
X109477419Y-96527695D01*
X109477419Y-96527695D02*
X109429800Y-96432457D01*
X109429800Y-96432457D02*
X109334561Y-96384838D01*
X109334561Y-96384838D02*
X109286942Y-96384838D01*
X109286942Y-96384838D02*
X109191704Y-96432457D01*
X109191704Y-96432457D02*
X109144085Y-96527695D01*
X109144085Y-96527695D02*
X109144085Y-96670552D01*
X109144085Y-96670552D02*
X109096466Y-96765790D01*
X109096466Y-96765790D02*
X109001228Y-96813409D01*
X109001228Y-96813409D02*
X108953609Y-96813409D01*
X108953609Y-96813409D02*
X108858371Y-96765790D01*
X108858371Y-96765790D02*
X108810752Y-96670552D01*
X108810752Y-96670552D02*
X108810752Y-96527695D01*
X108810752Y-96527695D02*
X108858371Y-96432457D01*
X109429800Y-95575314D02*
X109477419Y-95670552D01*
X109477419Y-95670552D02*
X109477419Y-95861028D01*
X109477419Y-95861028D02*
X109429800Y-95956266D01*
X109429800Y-95956266D02*
X109334561Y-96003885D01*
X109334561Y-96003885D02*
X108953609Y-96003885D01*
X108953609Y-96003885D02*
X108858371Y-95956266D01*
X108858371Y-95956266D02*
X108810752Y-95861028D01*
X108810752Y-95861028D02*
X108810752Y-95670552D01*
X108810752Y-95670552D02*
X108858371Y-95575314D01*
X108858371Y-95575314D02*
X108953609Y-95527695D01*
X108953609Y-95527695D02*
X109048847Y-95527695D01*
X109048847Y-95527695D02*
X109144085Y-96003885D01*
X109477419Y-95099123D02*
X108810752Y-95099123D01*
X109001228Y-95099123D02*
X108905990Y-95051504D01*
X108905990Y-95051504D02*
X108858371Y-95003885D01*
X108858371Y-95003885D02*
X108810752Y-94908647D01*
X108810752Y-94908647D02*
X108810752Y-94813409D01*
X109572657Y-94718171D02*
X109572657Y-93956266D01*
X109429800Y-93289599D02*
X109477419Y-93384837D01*
X109477419Y-93384837D02*
X109477419Y-93575313D01*
X109477419Y-93575313D02*
X109429800Y-93670551D01*
X109429800Y-93670551D02*
X109382180Y-93718170D01*
X109382180Y-93718170D02*
X109286942Y-93765789D01*
X109286942Y-93765789D02*
X109001228Y-93765789D01*
X109001228Y-93765789D02*
X108905990Y-93718170D01*
X108905990Y-93718170D02*
X108858371Y-93670551D01*
X108858371Y-93670551D02*
X108810752Y-93575313D01*
X108810752Y-93575313D02*
X108810752Y-93384837D01*
X108810752Y-93384837D02*
X108858371Y-93289599D01*
X109477419Y-92718170D02*
X109429800Y-92813408D01*
X109429800Y-92813408D02*
X109334561Y-92861027D01*
X109334561Y-92861027D02*
X108477419Y-92861027D01*
X109477419Y-92337217D02*
X108477419Y-92337217D01*
X109096466Y-92241979D02*
X109477419Y-91956265D01*
X108810752Y-91956265D02*
X109191704Y-92337217D01*
X128845038Y-97226503D02*
X128797419Y-97321741D01*
X128797419Y-97321741D02*
X128797419Y-97464598D01*
X128797419Y-97464598D02*
X128845038Y-97607455D01*
X128845038Y-97607455D02*
X128940276Y-97702693D01*
X128940276Y-97702693D02*
X129035514Y-97750312D01*
X129035514Y-97750312D02*
X129225990Y-97797931D01*
X129225990Y-97797931D02*
X129368847Y-97797931D01*
X129368847Y-97797931D02*
X129559323Y-97750312D01*
X129559323Y-97750312D02*
X129654561Y-97702693D01*
X129654561Y-97702693D02*
X129749800Y-97607455D01*
X129749800Y-97607455D02*
X129797419Y-97464598D01*
X129797419Y-97464598D02*
X129797419Y-97369360D01*
X129797419Y-97369360D02*
X129749800Y-97226503D01*
X129749800Y-97226503D02*
X129702180Y-97178884D01*
X129702180Y-97178884D02*
X129368847Y-97178884D01*
X129368847Y-97178884D02*
X129368847Y-97369360D01*
X129797419Y-96750312D02*
X128797419Y-96750312D01*
X128797419Y-96750312D02*
X129797419Y-96178884D01*
X129797419Y-96178884D02*
X128797419Y-96178884D01*
X129797419Y-95702693D02*
X128797419Y-95702693D01*
X128797419Y-95702693D02*
X128797419Y-95464598D01*
X128797419Y-95464598D02*
X128845038Y-95321741D01*
X128845038Y-95321741D02*
X128940276Y-95226503D01*
X128940276Y-95226503D02*
X129035514Y-95178884D01*
X129035514Y-95178884D02*
X129225990Y-95131265D01*
X129225990Y-95131265D02*
X129368847Y-95131265D01*
X129368847Y-95131265D02*
X129559323Y-95178884D01*
X129559323Y-95178884D02*
X129654561Y-95226503D01*
X129654561Y-95226503D02*
X129749800Y-95321741D01*
X129749800Y-95321741D02*
X129797419Y-95464598D01*
X129797419Y-95464598D02*
X129797419Y-95702693D01*
D11*
X185674819Y-103260065D02*
X185627200Y-103355303D01*
X185627200Y-103355303D02*
X185579580Y-103402922D01*
X185579580Y-103402922D02*
X185484342Y-103450541D01*
X185484342Y-103450541D02*
X185198628Y-103450541D01*
X185198628Y-103450541D02*
X185103390Y-103402922D01*
X185103390Y-103402922D02*
X185055771Y-103355303D01*
X185055771Y-103355303D02*
X185008152Y-103260065D01*
X185008152Y-103260065D02*
X185008152Y-103117208D01*
X185008152Y-103117208D02*
X185055771Y-103021970D01*
X185055771Y-103021970D02*
X185103390Y-102974351D01*
X185103390Y-102974351D02*
X185198628Y-102926732D01*
X185198628Y-102926732D02*
X185484342Y-102926732D01*
X185484342Y-102926732D02*
X185579580Y-102974351D01*
X185579580Y-102974351D02*
X185627200Y-103021970D01*
X185627200Y-103021970D02*
X185674819Y-103117208D01*
X185674819Y-103117208D02*
X185674819Y-103260065D01*
X185008152Y-102069589D02*
X185674819Y-102069589D01*
X185008152Y-102498160D02*
X185531961Y-102498160D01*
X185531961Y-102498160D02*
X185627200Y-102450541D01*
X185627200Y-102450541D02*
X185674819Y-102355303D01*
X185674819Y-102355303D02*
X185674819Y-102212446D01*
X185674819Y-102212446D02*
X185627200Y-102117208D01*
X185627200Y-102117208D02*
X185579580Y-102069589D01*
X185008152Y-101736255D02*
X185008152Y-101355303D01*
X184674819Y-101593398D02*
X185531961Y-101593398D01*
X185531961Y-101593398D02*
X185627200Y-101545779D01*
X185627200Y-101545779D02*
X185674819Y-101450541D01*
X185674819Y-101450541D02*
X185674819Y-101355303D01*
X184770057Y-101069588D02*
X184722438Y-101021969D01*
X184722438Y-101021969D02*
X184674819Y-100926731D01*
X184674819Y-100926731D02*
X184674819Y-100688636D01*
X184674819Y-100688636D02*
X184722438Y-100593398D01*
X184722438Y-100593398D02*
X184770057Y-100545779D01*
X184770057Y-100545779D02*
X184865295Y-100498160D01*
X184865295Y-100498160D02*
X184960533Y-100498160D01*
X184960533Y-100498160D02*
X185103390Y-100545779D01*
X185103390Y-100545779D02*
X185674819Y-101117207D01*
X185674819Y-101117207D02*
X185674819Y-100498160D01*
D10*
X134496466Y-98702693D02*
X134496466Y-97940789D01*
X134877419Y-98321741D02*
X134115514Y-98321741D01*
X134877419Y-96940789D02*
X134877419Y-97512217D01*
X134877419Y-97226503D02*
X133877419Y-97226503D01*
X133877419Y-97226503D02*
X134020276Y-97321741D01*
X134020276Y-97321741D02*
X134115514Y-97416979D01*
X134115514Y-97416979D02*
X134163133Y-97512217D01*
X133972657Y-96559836D02*
X133925038Y-96512217D01*
X133925038Y-96512217D02*
X133877419Y-96416979D01*
X133877419Y-96416979D02*
X133877419Y-96178884D01*
X133877419Y-96178884D02*
X133925038Y-96083646D01*
X133925038Y-96083646D02*
X133972657Y-96036027D01*
X133972657Y-96036027D02*
X134067895Y-95988408D01*
X134067895Y-95988408D02*
X134163133Y-95988408D01*
X134163133Y-95988408D02*
X134305990Y-96036027D01*
X134305990Y-96036027D02*
X134877419Y-96607455D01*
X134877419Y-96607455D02*
X134877419Y-95988408D01*
X133877419Y-95702693D02*
X134877419Y-95369360D01*
X134877419Y-95369360D02*
X133877419Y-95036027D01*
D11*
X161869819Y-97671220D02*
X160869819Y-97671220D01*
X160869819Y-97671220D02*
X160869819Y-97433125D01*
X160869819Y-97433125D02*
X160917438Y-97290268D01*
X160917438Y-97290268D02*
X161012676Y-97195030D01*
X161012676Y-97195030D02*
X161107914Y-97147411D01*
X161107914Y-97147411D02*
X161298390Y-97099792D01*
X161298390Y-97099792D02*
X161441247Y-97099792D01*
X161441247Y-97099792D02*
X161631723Y-97147411D01*
X161631723Y-97147411D02*
X161726961Y-97195030D01*
X161726961Y-97195030D02*
X161822200Y-97290268D01*
X161822200Y-97290268D02*
X161869819Y-97433125D01*
X161869819Y-97433125D02*
X161869819Y-97671220D01*
X161774580Y-96099792D02*
X161822200Y-96147411D01*
X161822200Y-96147411D02*
X161869819Y-96290268D01*
X161869819Y-96290268D02*
X161869819Y-96385506D01*
X161869819Y-96385506D02*
X161822200Y-96528363D01*
X161822200Y-96528363D02*
X161726961Y-96623601D01*
X161726961Y-96623601D02*
X161631723Y-96671220D01*
X161631723Y-96671220D02*
X161441247Y-96718839D01*
X161441247Y-96718839D02*
X161298390Y-96718839D01*
X161298390Y-96718839D02*
X161107914Y-96671220D01*
X161107914Y-96671220D02*
X161012676Y-96623601D01*
X161012676Y-96623601D02*
X160917438Y-96528363D01*
X160917438Y-96528363D02*
X160869819Y-96385506D01*
X160869819Y-96385506D02*
X160869819Y-96290268D01*
X160869819Y-96290268D02*
X160917438Y-96147411D01*
X160917438Y-96147411D02*
X160965057Y-96099792D01*
X161869819Y-94480744D02*
X161346009Y-94480744D01*
X161346009Y-94480744D02*
X161250771Y-94528363D01*
X161250771Y-94528363D02*
X161203152Y-94623601D01*
X161203152Y-94623601D02*
X161203152Y-94814077D01*
X161203152Y-94814077D02*
X161250771Y-94909315D01*
X161822200Y-94480744D02*
X161869819Y-94575982D01*
X161869819Y-94575982D02*
X161869819Y-94814077D01*
X161869819Y-94814077D02*
X161822200Y-94909315D01*
X161822200Y-94909315D02*
X161726961Y-94956934D01*
X161726961Y-94956934D02*
X161631723Y-94956934D01*
X161631723Y-94956934D02*
X161536485Y-94909315D01*
X161536485Y-94909315D02*
X161488866Y-94814077D01*
X161488866Y-94814077D02*
X161488866Y-94575982D01*
X161488866Y-94575982D02*
X161441247Y-94480744D01*
X161869819Y-93575982D02*
X160869819Y-93575982D01*
X161822200Y-93575982D02*
X161869819Y-93671220D01*
X161869819Y-93671220D02*
X161869819Y-93861696D01*
X161869819Y-93861696D02*
X161822200Y-93956934D01*
X161822200Y-93956934D02*
X161774580Y-94004553D01*
X161774580Y-94004553D02*
X161679342Y-94052172D01*
X161679342Y-94052172D02*
X161393628Y-94052172D01*
X161393628Y-94052172D02*
X161298390Y-94004553D01*
X161298390Y-94004553D02*
X161250771Y-93956934D01*
X161250771Y-93956934D02*
X161203152Y-93861696D01*
X161203152Y-93861696D02*
X161203152Y-93671220D01*
X161203152Y-93671220D02*
X161250771Y-93575982D01*
X161203152Y-93099791D02*
X162060295Y-93099791D01*
X162060295Y-93099791D02*
X162155533Y-93147410D01*
X162155533Y-93147410D02*
X162203152Y-93242648D01*
X162203152Y-93242648D02*
X162203152Y-93290267D01*
X160869819Y-93099791D02*
X160917438Y-93147410D01*
X160917438Y-93147410D02*
X160965057Y-93099791D01*
X160965057Y-93099791D02*
X160917438Y-93052172D01*
X160917438Y-93052172D02*
X160869819Y-93099791D01*
X160869819Y-93099791D02*
X160965057Y-93099791D01*
X161203152Y-92195030D02*
X161869819Y-92195030D01*
X161203152Y-92623601D02*
X161726961Y-92623601D01*
X161726961Y-92623601D02*
X161822200Y-92575982D01*
X161822200Y-92575982D02*
X161869819Y-92480744D01*
X161869819Y-92480744D02*
X161869819Y-92337887D01*
X161869819Y-92337887D02*
X161822200Y-92242649D01*
X161822200Y-92242649D02*
X161774580Y-92195030D01*
X161822200Y-91766458D02*
X161869819Y-91671220D01*
X161869819Y-91671220D02*
X161869819Y-91480744D01*
X161869819Y-91480744D02*
X161822200Y-91385506D01*
X161822200Y-91385506D02*
X161726961Y-91337887D01*
X161726961Y-91337887D02*
X161679342Y-91337887D01*
X161679342Y-91337887D02*
X161584104Y-91385506D01*
X161584104Y-91385506D02*
X161536485Y-91480744D01*
X161536485Y-91480744D02*
X161536485Y-91623601D01*
X161536485Y-91623601D02*
X161488866Y-91718839D01*
X161488866Y-91718839D02*
X161393628Y-91766458D01*
X161393628Y-91766458D02*
X161346009Y-91766458D01*
X161346009Y-91766458D02*
X161250771Y-91718839D01*
X161250771Y-91718839D02*
X161203152Y-91623601D01*
X161203152Y-91623601D02*
X161203152Y-91480744D01*
X161203152Y-91480744D02*
X161250771Y-91385506D01*
X161203152Y-91052172D02*
X161203152Y-90671220D01*
X160869819Y-90909315D02*
X161726961Y-90909315D01*
X161726961Y-90909315D02*
X161822200Y-90861696D01*
X161822200Y-90861696D02*
X161869819Y-90766458D01*
X161869819Y-90766458D02*
X161869819Y-90671220D01*
D10*
X131385038Y-97226503D02*
X131337419Y-97321741D01*
X131337419Y-97321741D02*
X131337419Y-97464598D01*
X131337419Y-97464598D02*
X131385038Y-97607455D01*
X131385038Y-97607455D02*
X131480276Y-97702693D01*
X131480276Y-97702693D02*
X131575514Y-97750312D01*
X131575514Y-97750312D02*
X131765990Y-97797931D01*
X131765990Y-97797931D02*
X131908847Y-97797931D01*
X131908847Y-97797931D02*
X132099323Y-97750312D01*
X132099323Y-97750312D02*
X132194561Y-97702693D01*
X132194561Y-97702693D02*
X132289800Y-97607455D01*
X132289800Y-97607455D02*
X132337419Y-97464598D01*
X132337419Y-97464598D02*
X132337419Y-97369360D01*
X132337419Y-97369360D02*
X132289800Y-97226503D01*
X132289800Y-97226503D02*
X132242180Y-97178884D01*
X132242180Y-97178884D02*
X131908847Y-97178884D01*
X131908847Y-97178884D02*
X131908847Y-97369360D01*
X132337419Y-96750312D02*
X131337419Y-96750312D01*
X131337419Y-96750312D02*
X132337419Y-96178884D01*
X132337419Y-96178884D02*
X131337419Y-96178884D01*
X132337419Y-95702693D02*
X131337419Y-95702693D01*
X131337419Y-95702693D02*
X131337419Y-95464598D01*
X131337419Y-95464598D02*
X131385038Y-95321741D01*
X131385038Y-95321741D02*
X131480276Y-95226503D01*
X131480276Y-95226503D02*
X131575514Y-95178884D01*
X131575514Y-95178884D02*
X131765990Y-95131265D01*
X131765990Y-95131265D02*
X131908847Y-95131265D01*
X131908847Y-95131265D02*
X132099323Y-95178884D01*
X132099323Y-95178884D02*
X132194561Y-95226503D01*
X132194561Y-95226503D02*
X132289800Y-95321741D01*
X132289800Y-95321741D02*
X132337419Y-95464598D01*
X132337419Y-95464598D02*
X132337419Y-95702693D01*
X103445038Y-105477306D02*
X103397419Y-105572544D01*
X103397419Y-105572544D02*
X103397419Y-105715401D01*
X103397419Y-105715401D02*
X103445038Y-105858258D01*
X103445038Y-105858258D02*
X103540276Y-105953496D01*
X103540276Y-105953496D02*
X103635514Y-106001115D01*
X103635514Y-106001115D02*
X103825990Y-106048734D01*
X103825990Y-106048734D02*
X103968847Y-106048734D01*
X103968847Y-106048734D02*
X104159323Y-106001115D01*
X104159323Y-106001115D02*
X104254561Y-105953496D01*
X104254561Y-105953496D02*
X104349800Y-105858258D01*
X104349800Y-105858258D02*
X104397419Y-105715401D01*
X104397419Y-105715401D02*
X104397419Y-105620163D01*
X104397419Y-105620163D02*
X104349800Y-105477306D01*
X104349800Y-105477306D02*
X104302180Y-105429687D01*
X104302180Y-105429687D02*
X103968847Y-105429687D01*
X103968847Y-105429687D02*
X103968847Y-105620163D01*
X104397419Y-105001115D02*
X103397419Y-105001115D01*
X103397419Y-105001115D02*
X104397419Y-104429687D01*
X104397419Y-104429687D02*
X103397419Y-104429687D01*
X104397419Y-103953496D02*
X103397419Y-103953496D01*
X103397419Y-103953496D02*
X103397419Y-103715401D01*
X103397419Y-103715401D02*
X103445038Y-103572544D01*
X103445038Y-103572544D02*
X103540276Y-103477306D01*
X103540276Y-103477306D02*
X103635514Y-103429687D01*
X103635514Y-103429687D02*
X103825990Y-103382068D01*
X103825990Y-103382068D02*
X103968847Y-103382068D01*
X103968847Y-103382068D02*
X104159323Y-103429687D01*
X104159323Y-103429687D02*
X104254561Y-103477306D01*
X104254561Y-103477306D02*
X104349800Y-103572544D01*
X104349800Y-103572544D02*
X104397419Y-103715401D01*
X104397419Y-103715401D02*
X104397419Y-103953496D01*
X139005038Y-97226503D02*
X138957419Y-97321741D01*
X138957419Y-97321741D02*
X138957419Y-97464598D01*
X138957419Y-97464598D02*
X139005038Y-97607455D01*
X139005038Y-97607455D02*
X139100276Y-97702693D01*
X139100276Y-97702693D02*
X139195514Y-97750312D01*
X139195514Y-97750312D02*
X139385990Y-97797931D01*
X139385990Y-97797931D02*
X139528847Y-97797931D01*
X139528847Y-97797931D02*
X139719323Y-97750312D01*
X139719323Y-97750312D02*
X139814561Y-97702693D01*
X139814561Y-97702693D02*
X139909800Y-97607455D01*
X139909800Y-97607455D02*
X139957419Y-97464598D01*
X139957419Y-97464598D02*
X139957419Y-97369360D01*
X139957419Y-97369360D02*
X139909800Y-97226503D01*
X139909800Y-97226503D02*
X139862180Y-97178884D01*
X139862180Y-97178884D02*
X139528847Y-97178884D01*
X139528847Y-97178884D02*
X139528847Y-97369360D01*
X139957419Y-96750312D02*
X138957419Y-96750312D01*
X138957419Y-96750312D02*
X139957419Y-96178884D01*
X139957419Y-96178884D02*
X138957419Y-96178884D01*
X139957419Y-95702693D02*
X138957419Y-95702693D01*
X138957419Y-95702693D02*
X138957419Y-95464598D01*
X138957419Y-95464598D02*
X139005038Y-95321741D01*
X139005038Y-95321741D02*
X139100276Y-95226503D01*
X139100276Y-95226503D02*
X139195514Y-95178884D01*
X139195514Y-95178884D02*
X139385990Y-95131265D01*
X139385990Y-95131265D02*
X139528847Y-95131265D01*
X139528847Y-95131265D02*
X139719323Y-95178884D01*
X139719323Y-95178884D02*
X139814561Y-95226503D01*
X139814561Y-95226503D02*
X139909800Y-95321741D01*
X139909800Y-95321741D02*
X139957419Y-95464598D01*
X139957419Y-95464598D02*
X139957419Y-95702693D01*
X190090752Y-91791503D02*
X190757419Y-91791503D01*
X189709800Y-92029598D02*
X190424085Y-92267693D01*
X190424085Y-92267693D02*
X190424085Y-91648646D01*
X116435884Y-83136419D02*
X116435884Y-82136419D01*
X116435884Y-82612609D02*
X117007312Y-82612609D01*
X117007312Y-83136419D02*
X117007312Y-82136419D01*
X117340646Y-82136419D02*
X117673979Y-83136419D01*
X117673979Y-83136419D02*
X118007312Y-82136419D01*
X118102551Y-83231657D02*
X118864455Y-83231657D01*
X119054932Y-82850704D02*
X119531122Y-82850704D01*
X118959694Y-83136419D02*
X119293027Y-82136419D01*
X119293027Y-82136419D02*
X119626360Y-83136419D01*
X119864456Y-82136419D02*
X120102551Y-83136419D01*
X120102551Y-83136419D02*
X120293027Y-82422133D01*
X120293027Y-82422133D02*
X120483503Y-83136419D01*
X120483503Y-83136419D02*
X120721599Y-82136419D01*
X121626360Y-82184038D02*
X121531122Y-82136419D01*
X121531122Y-82136419D02*
X121388265Y-82136419D01*
X121388265Y-82136419D02*
X121245408Y-82184038D01*
X121245408Y-82184038D02*
X121150170Y-82279276D01*
X121150170Y-82279276D02*
X121102551Y-82374514D01*
X121102551Y-82374514D02*
X121054932Y-82564990D01*
X121054932Y-82564990D02*
X121054932Y-82707847D01*
X121054932Y-82707847D02*
X121102551Y-82898323D01*
X121102551Y-82898323D02*
X121150170Y-82993561D01*
X121150170Y-82993561D02*
X121245408Y-83088800D01*
X121245408Y-83088800D02*
X121388265Y-83136419D01*
X121388265Y-83136419D02*
X121483503Y-83136419D01*
X121483503Y-83136419D02*
X121626360Y-83088800D01*
X121626360Y-83088800D02*
X121673979Y-83041180D01*
X121673979Y-83041180D02*
X121673979Y-82707847D01*
X121673979Y-82707847D02*
X121483503Y-82707847D01*
X122769218Y-82469752D02*
X123007313Y-83136419D01*
X123007313Y-83136419D02*
X123245408Y-82469752D01*
X124150170Y-83136419D02*
X123578742Y-83136419D01*
X123864456Y-83136419D02*
X123864456Y-82136419D01*
X123864456Y-82136419D02*
X123769218Y-82279276D01*
X123769218Y-82279276D02*
X123673980Y-82374514D01*
X123673980Y-82374514D02*
X123578742Y-82422133D01*
X103445038Y-94051503D02*
X103397419Y-94146741D01*
X103397419Y-94146741D02*
X103397419Y-94289598D01*
X103397419Y-94289598D02*
X103445038Y-94432455D01*
X103445038Y-94432455D02*
X103540276Y-94527693D01*
X103540276Y-94527693D02*
X103635514Y-94575312D01*
X103635514Y-94575312D02*
X103825990Y-94622931D01*
X103825990Y-94622931D02*
X103968847Y-94622931D01*
X103968847Y-94622931D02*
X104159323Y-94575312D01*
X104159323Y-94575312D02*
X104254561Y-94527693D01*
X104254561Y-94527693D02*
X104349800Y-94432455D01*
X104349800Y-94432455D02*
X104397419Y-94289598D01*
X104397419Y-94289598D02*
X104397419Y-94194360D01*
X104397419Y-94194360D02*
X104349800Y-94051503D01*
X104349800Y-94051503D02*
X104302180Y-94003884D01*
X104302180Y-94003884D02*
X103968847Y-94003884D01*
X103968847Y-94003884D02*
X103968847Y-94194360D01*
X104397419Y-93575312D02*
X103397419Y-93575312D01*
X103397419Y-93575312D02*
X104397419Y-93003884D01*
X104397419Y-93003884D02*
X103397419Y-93003884D01*
X104397419Y-92527693D02*
X103397419Y-92527693D01*
X103397419Y-92527693D02*
X103397419Y-92289598D01*
X103397419Y-92289598D02*
X103445038Y-92146741D01*
X103445038Y-92146741D02*
X103540276Y-92051503D01*
X103540276Y-92051503D02*
X103635514Y-92003884D01*
X103635514Y-92003884D02*
X103825990Y-91956265D01*
X103825990Y-91956265D02*
X103968847Y-91956265D01*
X103968847Y-91956265D02*
X104159323Y-92003884D01*
X104159323Y-92003884D02*
X104254561Y-92051503D01*
X104254561Y-92051503D02*
X104349800Y-92146741D01*
X104349800Y-92146741D02*
X104397419Y-92289598D01*
X104397419Y-92289598D02*
X104397419Y-92527693D01*
X111969800Y-95337218D02*
X112017419Y-95241980D01*
X112017419Y-95241980D02*
X112017419Y-95051504D01*
X112017419Y-95051504D02*
X111969800Y-94956266D01*
X111969800Y-94956266D02*
X111874561Y-94908647D01*
X111874561Y-94908647D02*
X111826942Y-94908647D01*
X111826942Y-94908647D02*
X111731704Y-94956266D01*
X111731704Y-94956266D02*
X111684085Y-95051504D01*
X111684085Y-95051504D02*
X111684085Y-95194361D01*
X111684085Y-95194361D02*
X111636466Y-95289599D01*
X111636466Y-95289599D02*
X111541228Y-95337218D01*
X111541228Y-95337218D02*
X111493609Y-95337218D01*
X111493609Y-95337218D02*
X111398371Y-95289599D01*
X111398371Y-95289599D02*
X111350752Y-95194361D01*
X111350752Y-95194361D02*
X111350752Y-95051504D01*
X111350752Y-95051504D02*
X111398371Y-94956266D01*
X111350752Y-94622932D02*
X111350752Y-94241980D01*
X111017419Y-94480075D02*
X111874561Y-94480075D01*
X111874561Y-94480075D02*
X111969800Y-94432456D01*
X111969800Y-94432456D02*
X112017419Y-94337218D01*
X112017419Y-94337218D02*
X112017419Y-94241980D01*
X112017419Y-93765789D02*
X111969800Y-93861027D01*
X111969800Y-93861027D02*
X111922180Y-93908646D01*
X111922180Y-93908646D02*
X111826942Y-93956265D01*
X111826942Y-93956265D02*
X111541228Y-93956265D01*
X111541228Y-93956265D02*
X111445990Y-93908646D01*
X111445990Y-93908646D02*
X111398371Y-93861027D01*
X111398371Y-93861027D02*
X111350752Y-93765789D01*
X111350752Y-93765789D02*
X111350752Y-93622932D01*
X111350752Y-93622932D02*
X111398371Y-93527694D01*
X111398371Y-93527694D02*
X111445990Y-93480075D01*
X111445990Y-93480075D02*
X111541228Y-93432456D01*
X111541228Y-93432456D02*
X111826942Y-93432456D01*
X111826942Y-93432456D02*
X111922180Y-93480075D01*
X111922180Y-93480075D02*
X111969800Y-93527694D01*
X111969800Y-93527694D02*
X112017419Y-93622932D01*
X112017419Y-93622932D02*
X112017419Y-93765789D01*
X112017419Y-93003884D02*
X111350752Y-93003884D01*
X111541228Y-93003884D02*
X111445990Y-92956265D01*
X111445990Y-92956265D02*
X111398371Y-92908646D01*
X111398371Y-92908646D02*
X111350752Y-92813408D01*
X111350752Y-92813408D02*
X111350752Y-92718170D01*
X111969800Y-92003884D02*
X112017419Y-92099122D01*
X112017419Y-92099122D02*
X112017419Y-92289598D01*
X112017419Y-92289598D02*
X111969800Y-92384836D01*
X111969800Y-92384836D02*
X111874561Y-92432455D01*
X111874561Y-92432455D02*
X111493609Y-92432455D01*
X111493609Y-92432455D02*
X111398371Y-92384836D01*
X111398371Y-92384836D02*
X111350752Y-92289598D01*
X111350752Y-92289598D02*
X111350752Y-92099122D01*
X111350752Y-92099122D02*
X111398371Y-92003884D01*
X111398371Y-92003884D02*
X111493609Y-91956265D01*
X111493609Y-91956265D02*
X111588847Y-91956265D01*
X111588847Y-91956265D02*
X111684085Y-92432455D01*
X116769217Y-86536609D02*
X116912074Y-86584228D01*
X116912074Y-86584228D02*
X116959693Y-86631847D01*
X116959693Y-86631847D02*
X117007312Y-86727085D01*
X117007312Y-86727085D02*
X117007312Y-86869942D01*
X117007312Y-86869942D02*
X116959693Y-86965180D01*
X116959693Y-86965180D02*
X116912074Y-87012800D01*
X116912074Y-87012800D02*
X116816836Y-87060419D01*
X116816836Y-87060419D02*
X116435884Y-87060419D01*
X116435884Y-87060419D02*
X116435884Y-86060419D01*
X116435884Y-86060419D02*
X116769217Y-86060419D01*
X116769217Y-86060419D02*
X116864455Y-86108038D01*
X116864455Y-86108038D02*
X116912074Y-86155657D01*
X116912074Y-86155657D02*
X116959693Y-86250895D01*
X116959693Y-86250895D02*
X116959693Y-86346133D01*
X116959693Y-86346133D02*
X116912074Y-86441371D01*
X116912074Y-86441371D02*
X116864455Y-86488990D01*
X116864455Y-86488990D02*
X116769217Y-86536609D01*
X116769217Y-86536609D02*
X116435884Y-86536609D01*
X117388265Y-86774704D02*
X117864455Y-86774704D01*
X117293027Y-87060419D02*
X117626360Y-86060419D01*
X117626360Y-86060419D02*
X117959693Y-87060419D01*
X118293027Y-87060419D02*
X118293027Y-86060419D01*
X118293027Y-86060419D02*
X118626360Y-86774704D01*
X118626360Y-86774704D02*
X118959693Y-86060419D01*
X118959693Y-86060419D02*
X118959693Y-87060419D01*
X119912074Y-87060419D02*
X119435884Y-87060419D01*
X119435884Y-87060419D02*
X119435884Y-86060419D01*
X120197789Y-86774704D02*
X120673979Y-86774704D01*
X120102551Y-87060419D02*
X120435884Y-86060419D01*
X120435884Y-86060419D02*
X120769217Y-87060419D01*
X121435884Y-86536609D02*
X121578741Y-86584228D01*
X121578741Y-86584228D02*
X121626360Y-86631847D01*
X121626360Y-86631847D02*
X121673979Y-86727085D01*
X121673979Y-86727085D02*
X121673979Y-86869942D01*
X121673979Y-86869942D02*
X121626360Y-86965180D01*
X121626360Y-86965180D02*
X121578741Y-87012800D01*
X121578741Y-87012800D02*
X121483503Y-87060419D01*
X121483503Y-87060419D02*
X121102551Y-87060419D01*
X121102551Y-87060419D02*
X121102551Y-86060419D01*
X121102551Y-86060419D02*
X121435884Y-86060419D01*
X121435884Y-86060419D02*
X121531122Y-86108038D01*
X121531122Y-86108038D02*
X121578741Y-86155657D01*
X121578741Y-86155657D02*
X121626360Y-86250895D01*
X121626360Y-86250895D02*
X121626360Y-86346133D01*
X121626360Y-86346133D02*
X121578741Y-86441371D01*
X121578741Y-86441371D02*
X121531122Y-86488990D01*
X121531122Y-86488990D02*
X121435884Y-86536609D01*
X121435884Y-86536609D02*
X121102551Y-86536609D01*
X116435884Y-85098419D02*
X116435884Y-84098419D01*
X116435884Y-84098419D02*
X116673979Y-84098419D01*
X116673979Y-84098419D02*
X116816836Y-84146038D01*
X116816836Y-84146038D02*
X116912074Y-84241276D01*
X116912074Y-84241276D02*
X116959693Y-84336514D01*
X116959693Y-84336514D02*
X117007312Y-84526990D01*
X117007312Y-84526990D02*
X117007312Y-84669847D01*
X117007312Y-84669847D02*
X116959693Y-84860323D01*
X116959693Y-84860323D02*
X116912074Y-84955561D01*
X116912074Y-84955561D02*
X116816836Y-85050800D01*
X116816836Y-85050800D02*
X116673979Y-85098419D01*
X116673979Y-85098419D02*
X116435884Y-85098419D01*
X117864455Y-85098419D02*
X117864455Y-84574609D01*
X117864455Y-84574609D02*
X117816836Y-84479371D01*
X117816836Y-84479371D02*
X117721598Y-84431752D01*
X117721598Y-84431752D02*
X117531122Y-84431752D01*
X117531122Y-84431752D02*
X117435884Y-84479371D01*
X117864455Y-85050800D02*
X117769217Y-85098419D01*
X117769217Y-85098419D02*
X117531122Y-85098419D01*
X117531122Y-85098419D02*
X117435884Y-85050800D01*
X117435884Y-85050800D02*
X117388265Y-84955561D01*
X117388265Y-84955561D02*
X117388265Y-84860323D01*
X117388265Y-84860323D02*
X117435884Y-84765085D01*
X117435884Y-84765085D02*
X117531122Y-84717466D01*
X117531122Y-84717466D02*
X117769217Y-84717466D01*
X117769217Y-84717466D02*
X117864455Y-84669847D01*
X118340646Y-84431752D02*
X118340646Y-85098419D01*
X118340646Y-84526990D02*
X118388265Y-84479371D01*
X118388265Y-84479371D02*
X118483503Y-84431752D01*
X118483503Y-84431752D02*
X118626360Y-84431752D01*
X118626360Y-84431752D02*
X118721598Y-84479371D01*
X118721598Y-84479371D02*
X118769217Y-84574609D01*
X118769217Y-84574609D02*
X118769217Y-85098419D01*
X119245408Y-85098419D02*
X119245408Y-84431752D01*
X119245408Y-84098419D02*
X119197789Y-84146038D01*
X119197789Y-84146038D02*
X119245408Y-84193657D01*
X119245408Y-84193657D02*
X119293027Y-84146038D01*
X119293027Y-84146038D02*
X119245408Y-84098419D01*
X119245408Y-84098419D02*
X119245408Y-84193657D01*
X120102550Y-85050800D02*
X120007312Y-85098419D01*
X120007312Y-85098419D02*
X119816836Y-85098419D01*
X119816836Y-85098419D02*
X119721598Y-85050800D01*
X119721598Y-85050800D02*
X119673979Y-84955561D01*
X119673979Y-84955561D02*
X119673979Y-84574609D01*
X119673979Y-84574609D02*
X119721598Y-84479371D01*
X119721598Y-84479371D02*
X119816836Y-84431752D01*
X119816836Y-84431752D02*
X120007312Y-84431752D01*
X120007312Y-84431752D02*
X120102550Y-84479371D01*
X120102550Y-84479371D02*
X120150169Y-84574609D01*
X120150169Y-84574609D02*
X120150169Y-84669847D01*
X120150169Y-84669847D02*
X119673979Y-84765085D01*
X120721598Y-85098419D02*
X120626360Y-85050800D01*
X120626360Y-85050800D02*
X120578741Y-84955561D01*
X120578741Y-84955561D02*
X120578741Y-84098419D01*
X121721599Y-84098419D02*
X122293027Y-84098419D01*
X122007313Y-85098419D02*
X122007313Y-84098419D01*
X123007313Y-85050800D02*
X122912075Y-85098419D01*
X122912075Y-85098419D02*
X122721599Y-85098419D01*
X122721599Y-85098419D02*
X122626361Y-85050800D01*
X122626361Y-85050800D02*
X122578742Y-84955561D01*
X122578742Y-84955561D02*
X122578742Y-84574609D01*
X122578742Y-84574609D02*
X122626361Y-84479371D01*
X122626361Y-84479371D02*
X122721599Y-84431752D01*
X122721599Y-84431752D02*
X122912075Y-84431752D01*
X122912075Y-84431752D02*
X123007313Y-84479371D01*
X123007313Y-84479371D02*
X123054932Y-84574609D01*
X123054932Y-84574609D02*
X123054932Y-84669847D01*
X123054932Y-84669847D02*
X122578742Y-84765085D01*
X123912075Y-85098419D02*
X123912075Y-84574609D01*
X123912075Y-84574609D02*
X123864456Y-84479371D01*
X123864456Y-84479371D02*
X123769218Y-84431752D01*
X123769218Y-84431752D02*
X123578742Y-84431752D01*
X123578742Y-84431752D02*
X123483504Y-84479371D01*
X123912075Y-85050800D02*
X123816837Y-85098419D01*
X123816837Y-85098419D02*
X123578742Y-85098419D01*
X123578742Y-85098419D02*
X123483504Y-85050800D01*
X123483504Y-85050800D02*
X123435885Y-84955561D01*
X123435885Y-84955561D02*
X123435885Y-84860323D01*
X123435885Y-84860323D02*
X123483504Y-84765085D01*
X123483504Y-84765085D02*
X123578742Y-84717466D01*
X123578742Y-84717466D02*
X123816837Y-84717466D01*
X123816837Y-84717466D02*
X123912075Y-84669847D01*
X124531123Y-85098419D02*
X124435885Y-85050800D01*
X124435885Y-85050800D02*
X124388266Y-84955561D01*
X124388266Y-84955561D02*
X124388266Y-84098419D01*
X141497419Y-98893169D02*
X142497419Y-98559836D01*
X142497419Y-98559836D02*
X141497419Y-98226503D01*
X142497419Y-97893169D02*
X141497419Y-97893169D01*
X142497419Y-97464598D02*
X141973609Y-97464598D01*
X141973609Y-97464598D02*
X141878371Y-97512217D01*
X141878371Y-97512217D02*
X141830752Y-97607455D01*
X141830752Y-97607455D02*
X141830752Y-97750312D01*
X141830752Y-97750312D02*
X141878371Y-97845550D01*
X141878371Y-97845550D02*
X141925990Y-97893169D01*
X142497419Y-96988407D02*
X141830752Y-96988407D01*
X141497419Y-96988407D02*
X141545038Y-97036026D01*
X141545038Y-97036026D02*
X141592657Y-96988407D01*
X141592657Y-96988407D02*
X141545038Y-96940788D01*
X141545038Y-96940788D02*
X141497419Y-96988407D01*
X141497419Y-96988407D02*
X141592657Y-96988407D01*
X141830752Y-96083646D02*
X142640276Y-96083646D01*
X142640276Y-96083646D02*
X142735514Y-96131265D01*
X142735514Y-96131265D02*
X142783133Y-96178884D01*
X142783133Y-96178884D02*
X142830752Y-96274122D01*
X142830752Y-96274122D02*
X142830752Y-96416979D01*
X142830752Y-96416979D02*
X142783133Y-96512217D01*
X142449800Y-96083646D02*
X142497419Y-96178884D01*
X142497419Y-96178884D02*
X142497419Y-96369360D01*
X142497419Y-96369360D02*
X142449800Y-96464598D01*
X142449800Y-96464598D02*
X142402180Y-96512217D01*
X142402180Y-96512217D02*
X142306942Y-96559836D01*
X142306942Y-96559836D02*
X142021228Y-96559836D01*
X142021228Y-96559836D02*
X141925990Y-96512217D01*
X141925990Y-96512217D02*
X141878371Y-96464598D01*
X141878371Y-96464598D02*
X141830752Y-96369360D01*
X141830752Y-96369360D02*
X141830752Y-96178884D01*
X141830752Y-96178884D02*
X141878371Y-96083646D01*
X142497419Y-95607455D02*
X141497419Y-95607455D01*
X142497419Y-95178884D02*
X141973609Y-95178884D01*
X141973609Y-95178884D02*
X141878371Y-95226503D01*
X141878371Y-95226503D02*
X141830752Y-95321741D01*
X141830752Y-95321741D02*
X141830752Y-95464598D01*
X141830752Y-95464598D02*
X141878371Y-95559836D01*
X141878371Y-95559836D02*
X141925990Y-95607455D01*
D11*
X181864819Y-103260065D02*
X181817200Y-103355303D01*
X181817200Y-103355303D02*
X181769580Y-103402922D01*
X181769580Y-103402922D02*
X181674342Y-103450541D01*
X181674342Y-103450541D02*
X181388628Y-103450541D01*
X181388628Y-103450541D02*
X181293390Y-103402922D01*
X181293390Y-103402922D02*
X181245771Y-103355303D01*
X181245771Y-103355303D02*
X181198152Y-103260065D01*
X181198152Y-103260065D02*
X181198152Y-103117208D01*
X181198152Y-103117208D02*
X181245771Y-103021970D01*
X181245771Y-103021970D02*
X181293390Y-102974351D01*
X181293390Y-102974351D02*
X181388628Y-102926732D01*
X181388628Y-102926732D02*
X181674342Y-102926732D01*
X181674342Y-102926732D02*
X181769580Y-102974351D01*
X181769580Y-102974351D02*
X181817200Y-103021970D01*
X181817200Y-103021970D02*
X181864819Y-103117208D01*
X181864819Y-103117208D02*
X181864819Y-103260065D01*
X181198152Y-102069589D02*
X181864819Y-102069589D01*
X181198152Y-102498160D02*
X181721961Y-102498160D01*
X181721961Y-102498160D02*
X181817200Y-102450541D01*
X181817200Y-102450541D02*
X181864819Y-102355303D01*
X181864819Y-102355303D02*
X181864819Y-102212446D01*
X181864819Y-102212446D02*
X181817200Y-102117208D01*
X181817200Y-102117208D02*
X181769580Y-102069589D01*
X181198152Y-101736255D02*
X181198152Y-101355303D01*
X180864819Y-101593398D02*
X181721961Y-101593398D01*
X181721961Y-101593398D02*
X181817200Y-101545779D01*
X181817200Y-101545779D02*
X181864819Y-101450541D01*
X181864819Y-101450541D02*
X181864819Y-101355303D01*
X181864819Y-100498160D02*
X181864819Y-101069588D01*
X181864819Y-100783874D02*
X180864819Y-100783874D01*
X180864819Y-100783874D02*
X181007676Y-100879112D01*
X181007676Y-100879112D02*
X181102914Y-100974350D01*
X181102914Y-100974350D02*
X181150533Y-101069588D01*
D10*
X190090752Y-105791503D02*
X190757419Y-105791503D01*
X189709800Y-106029598D02*
X190424085Y-106267693D01*
X190424085Y-106267693D02*
X190424085Y-105648646D01*
X144037419Y-101321741D02*
X145037419Y-100988408D01*
X145037419Y-100988408D02*
X144037419Y-100655075D01*
X145037419Y-100178884D02*
X144989800Y-100274122D01*
X144989800Y-100274122D02*
X144894561Y-100321741D01*
X144894561Y-100321741D02*
X144037419Y-100321741D01*
X145037419Y-99655074D02*
X144989800Y-99750312D01*
X144989800Y-99750312D02*
X144942180Y-99797931D01*
X144942180Y-99797931D02*
X144846942Y-99845550D01*
X144846942Y-99845550D02*
X144561228Y-99845550D01*
X144561228Y-99845550D02*
X144465990Y-99797931D01*
X144465990Y-99797931D02*
X144418371Y-99750312D01*
X144418371Y-99750312D02*
X144370752Y-99655074D01*
X144370752Y-99655074D02*
X144370752Y-99512217D01*
X144370752Y-99512217D02*
X144418371Y-99416979D01*
X144418371Y-99416979D02*
X144465990Y-99369360D01*
X144465990Y-99369360D02*
X144561228Y-99321741D01*
X144561228Y-99321741D02*
X144846942Y-99321741D01*
X144846942Y-99321741D02*
X144942180Y-99369360D01*
X144942180Y-99369360D02*
X144989800Y-99416979D01*
X144989800Y-99416979D02*
X145037419Y-99512217D01*
X145037419Y-99512217D02*
X145037419Y-99655074D01*
X144370752Y-98988407D02*
X145037419Y-98797931D01*
X145037419Y-98797931D02*
X144561228Y-98607455D01*
X144561228Y-98607455D02*
X145037419Y-98416979D01*
X145037419Y-98416979D02*
X144370752Y-98226503D01*
X144656466Y-97845550D02*
X144656466Y-97083646D01*
X145037419Y-97464598D02*
X144275514Y-97464598D01*
X145037419Y-96083646D02*
X145037419Y-96655074D01*
X145037419Y-96369360D02*
X144037419Y-96369360D01*
X144037419Y-96369360D02*
X144180276Y-96464598D01*
X144180276Y-96464598D02*
X144275514Y-96559836D01*
X144275514Y-96559836D02*
X144323133Y-96655074D01*
X144132657Y-95702693D02*
X144085038Y-95655074D01*
X144085038Y-95655074D02*
X144037419Y-95559836D01*
X144037419Y-95559836D02*
X144037419Y-95321741D01*
X144037419Y-95321741D02*
X144085038Y-95226503D01*
X144085038Y-95226503D02*
X144132657Y-95178884D01*
X144132657Y-95178884D02*
X144227895Y-95131265D01*
X144227895Y-95131265D02*
X144323133Y-95131265D01*
X144323133Y-95131265D02*
X144465990Y-95178884D01*
X144465990Y-95178884D02*
X145037419Y-95750312D01*
X145037419Y-95750312D02*
X145037419Y-95131265D01*
X184772657Y-106267693D02*
X184725038Y-106220074D01*
X184725038Y-106220074D02*
X184677419Y-106124836D01*
X184677419Y-106124836D02*
X184677419Y-105886741D01*
X184677419Y-105886741D02*
X184725038Y-105791503D01*
X184725038Y-105791503D02*
X184772657Y-105743884D01*
X184772657Y-105743884D02*
X184867895Y-105696265D01*
X184867895Y-105696265D02*
X184963133Y-105696265D01*
X184963133Y-105696265D02*
X185105990Y-105743884D01*
X185105990Y-105743884D02*
X185677419Y-106315312D01*
X185677419Y-106315312D02*
X185677419Y-105696265D01*
X146577419Y-98178884D02*
X147577419Y-97845551D01*
X147577419Y-97845551D02*
X146577419Y-97512218D01*
X147577419Y-97036027D02*
X147529800Y-97131265D01*
X147529800Y-97131265D02*
X147434561Y-97178884D01*
X147434561Y-97178884D02*
X146577419Y-97178884D01*
X147577419Y-96512217D02*
X147529800Y-96607455D01*
X147529800Y-96607455D02*
X147482180Y-96655074D01*
X147482180Y-96655074D02*
X147386942Y-96702693D01*
X147386942Y-96702693D02*
X147101228Y-96702693D01*
X147101228Y-96702693D02*
X147005990Y-96655074D01*
X147005990Y-96655074D02*
X146958371Y-96607455D01*
X146958371Y-96607455D02*
X146910752Y-96512217D01*
X146910752Y-96512217D02*
X146910752Y-96369360D01*
X146910752Y-96369360D02*
X146958371Y-96274122D01*
X146958371Y-96274122D02*
X147005990Y-96226503D01*
X147005990Y-96226503D02*
X147101228Y-96178884D01*
X147101228Y-96178884D02*
X147386942Y-96178884D01*
X147386942Y-96178884D02*
X147482180Y-96226503D01*
X147482180Y-96226503D02*
X147529800Y-96274122D01*
X147529800Y-96274122D02*
X147577419Y-96369360D01*
X147577419Y-96369360D02*
X147577419Y-96512217D01*
X146910752Y-95845550D02*
X147577419Y-95655074D01*
X147577419Y-95655074D02*
X147101228Y-95464598D01*
X147101228Y-95464598D02*
X147577419Y-95274122D01*
X147577419Y-95274122D02*
X146910752Y-95083646D01*
X187217419Y-106315312D02*
X187217419Y-105696265D01*
X187217419Y-105696265D02*
X187598371Y-106029598D01*
X187598371Y-106029598D02*
X187598371Y-105886741D01*
X187598371Y-105886741D02*
X187645990Y-105791503D01*
X187645990Y-105791503D02*
X187693609Y-105743884D01*
X187693609Y-105743884D02*
X187788847Y-105696265D01*
X187788847Y-105696265D02*
X188026942Y-105696265D01*
X188026942Y-105696265D02*
X188122180Y-105743884D01*
X188122180Y-105743884D02*
X188169800Y-105791503D01*
X188169800Y-105791503D02*
X188217419Y-105886741D01*
X188217419Y-105886741D02*
X188217419Y-106172455D01*
X188217419Y-106172455D02*
X188169800Y-106267693D01*
X188169800Y-106267693D02*
X188122180Y-106315312D01*
X184772657Y-92267693D02*
X184725038Y-92220074D01*
X184725038Y-92220074D02*
X184677419Y-92124836D01*
X184677419Y-92124836D02*
X184677419Y-91886741D01*
X184677419Y-91886741D02*
X184725038Y-91791503D01*
X184725038Y-91791503D02*
X184772657Y-91743884D01*
X184772657Y-91743884D02*
X184867895Y-91696265D01*
X184867895Y-91696265D02*
X184963133Y-91696265D01*
X184963133Y-91696265D02*
X185105990Y-91743884D01*
X185105990Y-91743884D02*
X185677419Y-92315312D01*
X185677419Y-92315312D02*
X185677419Y-91696265D01*
X106889800Y-106048734D02*
X106937419Y-105953496D01*
X106937419Y-105953496D02*
X106937419Y-105763020D01*
X106937419Y-105763020D02*
X106889800Y-105667782D01*
X106889800Y-105667782D02*
X106794561Y-105620163D01*
X106794561Y-105620163D02*
X106746942Y-105620163D01*
X106746942Y-105620163D02*
X106651704Y-105667782D01*
X106651704Y-105667782D02*
X106604085Y-105763020D01*
X106604085Y-105763020D02*
X106604085Y-105905877D01*
X106604085Y-105905877D02*
X106556466Y-106001115D01*
X106556466Y-106001115D02*
X106461228Y-106048734D01*
X106461228Y-106048734D02*
X106413609Y-106048734D01*
X106413609Y-106048734D02*
X106318371Y-106001115D01*
X106318371Y-106001115D02*
X106270752Y-105905877D01*
X106270752Y-105905877D02*
X106270752Y-105763020D01*
X106270752Y-105763020D02*
X106318371Y-105667782D01*
X106889800Y-104810639D02*
X106937419Y-104905877D01*
X106937419Y-104905877D02*
X106937419Y-105096353D01*
X106937419Y-105096353D02*
X106889800Y-105191591D01*
X106889800Y-105191591D02*
X106794561Y-105239210D01*
X106794561Y-105239210D02*
X106413609Y-105239210D01*
X106413609Y-105239210D02*
X106318371Y-105191591D01*
X106318371Y-105191591D02*
X106270752Y-105096353D01*
X106270752Y-105096353D02*
X106270752Y-104905877D01*
X106270752Y-104905877D02*
X106318371Y-104810639D01*
X106318371Y-104810639D02*
X106413609Y-104763020D01*
X106413609Y-104763020D02*
X106508847Y-104763020D01*
X106508847Y-104763020D02*
X106604085Y-105239210D01*
X106937419Y-104334448D02*
X106270752Y-104334448D01*
X106461228Y-104334448D02*
X106365990Y-104286829D01*
X106365990Y-104286829D02*
X106318371Y-104239210D01*
X106318371Y-104239210D02*
X106270752Y-104143972D01*
X106270752Y-104143972D02*
X106270752Y-104048734D01*
X107032657Y-103953496D02*
X107032657Y-103191591D01*
X106937419Y-102810638D02*
X106889800Y-102905876D01*
X106889800Y-102905876D02*
X106842180Y-102953495D01*
X106842180Y-102953495D02*
X106746942Y-103001114D01*
X106746942Y-103001114D02*
X106461228Y-103001114D01*
X106461228Y-103001114D02*
X106365990Y-102953495D01*
X106365990Y-102953495D02*
X106318371Y-102905876D01*
X106318371Y-102905876D02*
X106270752Y-102810638D01*
X106270752Y-102810638D02*
X106270752Y-102667781D01*
X106270752Y-102667781D02*
X106318371Y-102572543D01*
X106318371Y-102572543D02*
X106365990Y-102524924D01*
X106365990Y-102524924D02*
X106461228Y-102477305D01*
X106461228Y-102477305D02*
X106746942Y-102477305D01*
X106746942Y-102477305D02*
X106842180Y-102524924D01*
X106842180Y-102524924D02*
X106889800Y-102572543D01*
X106889800Y-102572543D02*
X106937419Y-102667781D01*
X106937419Y-102667781D02*
X106937419Y-102810638D01*
X106270752Y-101620162D02*
X106937419Y-101620162D01*
X106270752Y-102048733D02*
X106794561Y-102048733D01*
X106794561Y-102048733D02*
X106889800Y-102001114D01*
X106889800Y-102001114D02*
X106937419Y-101905876D01*
X106937419Y-101905876D02*
X106937419Y-101763019D01*
X106937419Y-101763019D02*
X106889800Y-101667781D01*
X106889800Y-101667781D02*
X106842180Y-101620162D01*
X106270752Y-101286828D02*
X106270752Y-100905876D01*
X105937419Y-101143971D02*
X106794561Y-101143971D01*
X106794561Y-101143971D02*
X106889800Y-101096352D01*
X106889800Y-101096352D02*
X106937419Y-101001114D01*
X106937419Y-101001114D02*
X106937419Y-100905876D01*
D12*
%TO.C,U3*%
X90539000Y-96445000D02*
X90539000Y-94495000D01*
X90539000Y-96445000D02*
X90539000Y-98395000D01*
X100659000Y-96445000D02*
X100659000Y-94495000D01*
X100659000Y-96445000D02*
X100659000Y-98395000D01*
X90594000Y-99145000D02*
X90264000Y-99385000D01*
X90264000Y-98905000D01*
X90594000Y-99145000D01*
G36*
X90594000Y-99145000D02*
G01*
X90264000Y-99385000D01*
X90264000Y-98905000D01*
X90594000Y-99145000D01*
G37*
%TO.C,C3*%
X87242252Y-90195000D02*
X85819748Y-90195000D01*
X87242252Y-92015000D02*
X85819748Y-92015000D01*
%TO.C,R21*%
X216785000Y-89205000D02*
X216785000Y-98445000D01*
X216785000Y-93825000D02*
X212745000Y-93825000D01*
X216785000Y-98445000D02*
X226025000Y-98445000D01*
X226025000Y-89205000D02*
X216785000Y-89205000D01*
X226025000Y-98445000D02*
X226025000Y-89205000D01*
D11*
%TO.C,TP4*%
X177177000Y-101529000D02*
G75*
G02*
X173677000Y-101529000I-1750000J0D01*
G01*
X173677000Y-101529000D02*
G75*
G02*
X177177000Y-101529000I1750000J0D01*
G01*
D12*
%TO.C,U6*%
X165037000Y-104836000D02*
X164237000Y-104836000D01*
X165037000Y-104836000D02*
X165837000Y-104836000D01*
X165037000Y-107956000D02*
X164237000Y-107956000D01*
X165037000Y-107956000D02*
X165837000Y-107956000D01*
X166577000Y-108236000D02*
X166097000Y-108236000D01*
X166337000Y-107906000D01*
X166577000Y-108236000D01*
G36*
X166577000Y-108236000D02*
G01*
X166097000Y-108236000D01*
X166337000Y-107906000D01*
X166577000Y-108236000D01*
G37*
%TO.C,R22*%
X211319000Y-108431936D02*
X211319000Y-111486064D01*
X214039000Y-108431936D02*
X214039000Y-111486064D01*
%TO.C,R10*%
X114453000Y-93946641D02*
X114453000Y-93639359D01*
X115213000Y-93946641D02*
X115213000Y-93639359D01*
%TO.C,R1*%
X134040000Y-100745359D02*
X134040000Y-101052641D01*
X134800000Y-100745359D02*
X134800000Y-101052641D01*
%TO.C,D1*%
X133685000Y-102264000D02*
X133685000Y-104549000D01*
X135155000Y-102264000D02*
X133685000Y-102264000D01*
X135155000Y-104549000D02*
X135155000Y-102264000D01*
%TO.C,C13*%
X121343748Y-91907000D02*
X122766252Y-91907000D01*
X121343748Y-93727000D02*
X122766252Y-93727000D01*
%TO.C,J7*%
X181351000Y-80340000D02*
X181351000Y-88970000D01*
X181351000Y-80340000D02*
X191631000Y-80340000D01*
X181351000Y-88970000D02*
X191631000Y-88970000D01*
X181351000Y-90430000D02*
X181351000Y-91540000D01*
X181351000Y-91540000D02*
X182681000Y-91540000D01*
X181471000Y-80340000D02*
X181471000Y-88970000D01*
X181589095Y-80340000D02*
X181589095Y-88970000D01*
X181707190Y-80340000D02*
X181707190Y-88970000D01*
X181825285Y-80340000D02*
X181825285Y-88970000D01*
X181943380Y-80340000D02*
X181943380Y-88970000D01*
X182061475Y-80340000D02*
X182061475Y-88970000D01*
X182179570Y-80340000D02*
X182179570Y-88970000D01*
X182297665Y-80340000D02*
X182297665Y-88970000D01*
X182321000Y-88970000D02*
X182321000Y-89320000D01*
X182415760Y-80340000D02*
X182415760Y-88970000D01*
X182533855Y-80340000D02*
X182533855Y-88970000D01*
X182651950Y-80340000D02*
X182651950Y-88970000D01*
X182770045Y-80340000D02*
X182770045Y-88970000D01*
X182888140Y-80340000D02*
X182888140Y-88970000D01*
X183006235Y-80340000D02*
X183006235Y-88970000D01*
X183041000Y-88970000D02*
X183041000Y-89320000D01*
X183124330Y-80340000D02*
X183124330Y-88970000D01*
X183242425Y-80340000D02*
X183242425Y-88970000D01*
X183360520Y-80340000D02*
X183360520Y-88970000D01*
X183478615Y-80340000D02*
X183478615Y-88970000D01*
X183596710Y-80340000D02*
X183596710Y-88970000D01*
X183714805Y-80340000D02*
X183714805Y-88970000D01*
X183832900Y-80340000D02*
X183832900Y-88970000D01*
X183951000Y-80340000D02*
X183951000Y-88970000D01*
X184861000Y-88970000D02*
X184861000Y-89380000D01*
X185581000Y-88970000D02*
X185581000Y-89380000D01*
X186491000Y-80340000D02*
X186491000Y-88970000D01*
X187401000Y-88970000D02*
X187401000Y-89380000D01*
X188121000Y-88970000D02*
X188121000Y-89380000D01*
X189031000Y-80340000D02*
X189031000Y-88970000D01*
X189941000Y-88970000D02*
X189941000Y-89380000D01*
X190661000Y-88970000D02*
X190661000Y-89380000D01*
X191631000Y-80340000D02*
X191631000Y-88970000D01*
%TO.C,J5*%
X138171000Y-80340000D02*
X138171000Y-88970000D01*
X138171000Y-80340000D02*
X148451000Y-80340000D01*
X138171000Y-88970000D02*
X148451000Y-88970000D01*
X138171000Y-90430000D02*
X138171000Y-91540000D01*
X138171000Y-91540000D02*
X139501000Y-91540000D01*
X138291000Y-80340000D02*
X138291000Y-88970000D01*
X138409095Y-80340000D02*
X138409095Y-88970000D01*
X138527190Y-80340000D02*
X138527190Y-88970000D01*
X138645285Y-80340000D02*
X138645285Y-88970000D01*
X138763380Y-80340000D02*
X138763380Y-88970000D01*
X138881475Y-80340000D02*
X138881475Y-88970000D01*
X138999570Y-80340000D02*
X138999570Y-88970000D01*
X139117665Y-80340000D02*
X139117665Y-88970000D01*
X139141000Y-88970000D02*
X139141000Y-89320000D01*
X139235760Y-80340000D02*
X139235760Y-88970000D01*
X139353855Y-80340000D02*
X139353855Y-88970000D01*
X139471950Y-80340000D02*
X139471950Y-88970000D01*
X139590045Y-80340000D02*
X139590045Y-88970000D01*
X139708140Y-80340000D02*
X139708140Y-88970000D01*
X139826235Y-80340000D02*
X139826235Y-88970000D01*
X139861000Y-88970000D02*
X139861000Y-89320000D01*
X139944330Y-80340000D02*
X139944330Y-88970000D01*
X140062425Y-80340000D02*
X140062425Y-88970000D01*
X140180520Y-80340000D02*
X140180520Y-88970000D01*
X140298615Y-80340000D02*
X140298615Y-88970000D01*
X140416710Y-80340000D02*
X140416710Y-88970000D01*
X140534805Y-80340000D02*
X140534805Y-88970000D01*
X140652900Y-80340000D02*
X140652900Y-88970000D01*
X140771000Y-80340000D02*
X140771000Y-88970000D01*
X141681000Y-88970000D02*
X141681000Y-89380000D01*
X142401000Y-88970000D02*
X142401000Y-89380000D01*
X143311000Y-80340000D02*
X143311000Y-88970000D01*
X144221000Y-88970000D02*
X144221000Y-89380000D01*
X144941000Y-88970000D02*
X144941000Y-89380000D01*
X145851000Y-80340000D02*
X145851000Y-88970000D01*
X146761000Y-88970000D02*
X146761000Y-89380000D01*
X147481000Y-88970000D02*
X147481000Y-89380000D01*
X148451000Y-80340000D02*
X148451000Y-88970000D01*
%TO.C,C22*%
X160044000Y-112216748D02*
X160044000Y-113639252D01*
X161864000Y-112216748D02*
X161864000Y-113639252D01*
%TO.C,R2*%
X136580000Y-101052641D02*
X136580000Y-100745359D01*
X137340000Y-101052641D02*
X137340000Y-100745359D01*
%TO.C,RV1*%
X154985000Y-99570000D02*
X160055000Y-99570000D01*
X154985000Y-109340000D02*
X154985000Y-99570000D01*
X154985000Y-109340000D02*
X160055000Y-109340000D01*
X160055000Y-109340000D02*
X160055000Y-99570000D01*
%TO.C,C25*%
X209817000Y-101803580D02*
X209817000Y-101522420D01*
X210837000Y-101803580D02*
X210837000Y-101522420D01*
%TO.C,U1*%
X90693000Y-108976000D02*
X90963000Y-108976000D01*
X90693000Y-115396000D02*
X90693000Y-108976000D01*
X97593000Y-108976000D02*
X97323000Y-108976000D01*
X97593000Y-115396000D02*
X97593000Y-108976000D01*
X97613000Y-107796000D02*
X97283000Y-107556000D01*
X97613000Y-107316000D01*
X97613000Y-107796000D01*
G36*
X97613000Y-107796000D02*
G01*
X97283000Y-107556000D01*
X97613000Y-107316000D01*
X97613000Y-107796000D01*
G37*
%TO.C,J9*%
X128010000Y-94300000D02*
X128010000Y-92970000D01*
X129340000Y-94300000D02*
X128010000Y-94300000D01*
X130610000Y-91640000D02*
X148450000Y-91640000D01*
X130610000Y-94300000D02*
X130610000Y-91640000D01*
X130610000Y-94300000D02*
X148450000Y-94300000D01*
X148450000Y-94300000D02*
X148450000Y-91640000D01*
%TO.C,C6*%
X88267580Y-97855000D02*
X87986420Y-97855000D01*
X88267580Y-98875000D02*
X87986420Y-98875000D01*
%TO.C,R23*%
X213395000Y-115461000D02*
X213465000Y-115461000D01*
X213395000Y-115461000D02*
G75*
G02*
X210655000Y-115461000I-1370000J0D01*
G01*
X210655000Y-115461000D02*
G75*
G02*
X213395000Y-115461000I1370000J0D01*
G01*
%TO.C,J4*%
X128010000Y-106460000D02*
X129340000Y-106460000D01*
X128010000Y-107570000D02*
X128010000Y-106460000D01*
X128010000Y-109030000D02*
X138290000Y-109030000D01*
X128010000Y-117660000D02*
X128010000Y-109030000D01*
X128010000Y-117660000D02*
X138290000Y-117660000D01*
X128130000Y-117660000D02*
X128130000Y-109030000D01*
X128248095Y-117660000D02*
X128248095Y-109030000D01*
X128366190Y-117660000D02*
X128366190Y-109030000D01*
X128484285Y-117660000D02*
X128484285Y-109030000D01*
X128602380Y-117660000D02*
X128602380Y-109030000D01*
X128720475Y-117660000D02*
X128720475Y-109030000D01*
X128838570Y-117660000D02*
X128838570Y-109030000D01*
X128956665Y-117660000D02*
X128956665Y-109030000D01*
X128980000Y-109030000D02*
X128980000Y-108680000D01*
X129074760Y-117660000D02*
X129074760Y-109030000D01*
X129192855Y-117660000D02*
X129192855Y-109030000D01*
X129310950Y-117660000D02*
X129310950Y-109030000D01*
X129429045Y-117660000D02*
X129429045Y-109030000D01*
X129547140Y-117660000D02*
X129547140Y-109030000D01*
X129665235Y-117660000D02*
X129665235Y-109030000D01*
X129700000Y-109030000D02*
X129700000Y-108680000D01*
X129783330Y-117660000D02*
X129783330Y-109030000D01*
X129901425Y-117660000D02*
X129901425Y-109030000D01*
X130019520Y-117660000D02*
X130019520Y-109030000D01*
X130137615Y-117660000D02*
X130137615Y-109030000D01*
X130255710Y-117660000D02*
X130255710Y-109030000D01*
X130373805Y-117660000D02*
X130373805Y-109030000D01*
X130491900Y-117660000D02*
X130491900Y-109030000D01*
X130610000Y-117660000D02*
X130610000Y-109030000D01*
X131520000Y-109030000D02*
X131520000Y-108620000D01*
X132240000Y-109030000D02*
X132240000Y-108620000D01*
X133150000Y-117660000D02*
X133150000Y-109030000D01*
X134060000Y-109030000D02*
X134060000Y-108620000D01*
X134780000Y-109030000D02*
X134780000Y-108620000D01*
X135690000Y-117660000D02*
X135690000Y-109030000D01*
X136600000Y-109030000D02*
X136600000Y-108620000D01*
X137320000Y-109030000D02*
X137320000Y-108620000D01*
X138290000Y-117660000D02*
X138290000Y-109030000D01*
%TO.C,U2*%
X90539000Y-88395000D02*
X90539000Y-86445000D01*
X90539000Y-88395000D02*
X90539000Y-90345000D01*
X100659000Y-88395000D02*
X100659000Y-86445000D01*
X100659000Y-88395000D02*
X100659000Y-90345000D01*
X90594000Y-91095000D02*
X90264000Y-91335000D01*
X90264000Y-90855000D01*
X90594000Y-91095000D01*
G36*
X90594000Y-91095000D02*
G01*
X90264000Y-91335000D01*
X90264000Y-90855000D01*
X90594000Y-91095000D01*
G37*
%TO.C,C10*%
X121045580Y-105853000D02*
X120764420Y-105853000D01*
X121045580Y-106873000D02*
X120764420Y-106873000D01*
%TO.C,C12*%
X116393000Y-108396252D02*
X116393000Y-106973748D01*
X118213000Y-108396252D02*
X118213000Y-106973748D01*
%TO.C,JP10*%
X187700000Y-94434000D02*
X189030000Y-94434000D01*
X187700000Y-95764000D02*
X187700000Y-94434000D01*
X187700000Y-97034000D02*
X187700000Y-99634000D01*
X187700000Y-97034000D02*
X190360000Y-97034000D01*
X187700000Y-99634000D02*
X190360000Y-99634000D01*
X190360000Y-97034000D02*
X190360000Y-99634000D01*
%TO.C,R6*%
X87454641Y-95001000D02*
X87147359Y-95001000D01*
X87454641Y-95761000D02*
X87147359Y-95761000D01*
%TO.C,C24*%
X205689000Y-102374252D02*
X205689000Y-100951748D01*
X207509000Y-102374252D02*
X207509000Y-100951748D01*
%TO.C,R17*%
X174005000Y-113647359D02*
X174005000Y-113954641D01*
X174765000Y-113647359D02*
X174765000Y-113954641D01*
%TO.C,J8*%
X181350000Y-106460000D02*
X182680000Y-106460000D01*
X181350000Y-107570000D02*
X181350000Y-106460000D01*
X181350000Y-109030000D02*
X191630000Y-109030000D01*
X181350000Y-117660000D02*
X181350000Y-109030000D01*
X181350000Y-117660000D02*
X191630000Y-117660000D01*
X181470000Y-117660000D02*
X181470000Y-109030000D01*
X181588095Y-117660000D02*
X181588095Y-109030000D01*
X181706190Y-117660000D02*
X181706190Y-109030000D01*
X181824285Y-117660000D02*
X181824285Y-109030000D01*
X181942380Y-117660000D02*
X181942380Y-109030000D01*
X182060475Y-117660000D02*
X182060475Y-109030000D01*
X182178570Y-117660000D02*
X182178570Y-109030000D01*
X182296665Y-117660000D02*
X182296665Y-109030000D01*
X182320000Y-109030000D02*
X182320000Y-108680000D01*
X182414760Y-117660000D02*
X182414760Y-109030000D01*
X182532855Y-117660000D02*
X182532855Y-109030000D01*
X182650950Y-117660000D02*
X182650950Y-109030000D01*
X182769045Y-117660000D02*
X182769045Y-109030000D01*
X182887140Y-117660000D02*
X182887140Y-109030000D01*
X183005235Y-117660000D02*
X183005235Y-109030000D01*
X183040000Y-109030000D02*
X183040000Y-108680000D01*
X183123330Y-117660000D02*
X183123330Y-109030000D01*
X183241425Y-117660000D02*
X183241425Y-109030000D01*
X183359520Y-117660000D02*
X183359520Y-109030000D01*
X183477615Y-117660000D02*
X183477615Y-109030000D01*
X183595710Y-117660000D02*
X183595710Y-109030000D01*
X183713805Y-117660000D02*
X183713805Y-109030000D01*
X183831900Y-117660000D02*
X183831900Y-109030000D01*
X183950000Y-117660000D02*
X183950000Y-109030000D01*
X184860000Y-109030000D02*
X184860000Y-108620000D01*
X185580000Y-109030000D02*
X185580000Y-108620000D01*
X186490000Y-117660000D02*
X186490000Y-109030000D01*
X187400000Y-109030000D02*
X187400000Y-108620000D01*
X188120000Y-109030000D02*
X188120000Y-108620000D01*
X189030000Y-117660000D02*
X189030000Y-109030000D01*
X189940000Y-109030000D02*
X189940000Y-108620000D01*
X190660000Y-109030000D02*
X190660000Y-108620000D01*
X191630000Y-117660000D02*
X191630000Y-109030000D01*
%TO.C,R18*%
X216829000Y-102485936D02*
X216829000Y-103940064D01*
X218649000Y-102485936D02*
X218649000Y-103940064D01*
%TO.C,J2*%
X102610000Y-106460000D02*
X103940000Y-106460000D01*
X102610000Y-107570000D02*
X102610000Y-106460000D01*
X102610000Y-109030000D02*
X112890000Y-109030000D01*
X102610000Y-117660000D02*
X102610000Y-109030000D01*
X102610000Y-117660000D02*
X112890000Y-117660000D01*
X102730000Y-117660000D02*
X102730000Y-109030000D01*
X102848095Y-117660000D02*
X102848095Y-109030000D01*
X102966190Y-117660000D02*
X102966190Y-109030000D01*
X103084285Y-117660000D02*
X103084285Y-109030000D01*
X103202380Y-117660000D02*
X103202380Y-109030000D01*
X103320475Y-117660000D02*
X103320475Y-109030000D01*
X103438570Y-117660000D02*
X103438570Y-109030000D01*
X103556665Y-117660000D02*
X103556665Y-109030000D01*
X103580000Y-109030000D02*
X103580000Y-108680000D01*
X103674760Y-117660000D02*
X103674760Y-109030000D01*
X103792855Y-117660000D02*
X103792855Y-109030000D01*
X103910950Y-117660000D02*
X103910950Y-109030000D01*
X104029045Y-117660000D02*
X104029045Y-109030000D01*
X104147140Y-117660000D02*
X104147140Y-109030000D01*
X104265235Y-117660000D02*
X104265235Y-109030000D01*
X104300000Y-109030000D02*
X104300000Y-108680000D01*
X104383330Y-117660000D02*
X104383330Y-109030000D01*
X104501425Y-117660000D02*
X104501425Y-109030000D01*
X104619520Y-117660000D02*
X104619520Y-109030000D01*
X104737615Y-117660000D02*
X104737615Y-109030000D01*
X104855710Y-117660000D02*
X104855710Y-109030000D01*
X104973805Y-117660000D02*
X104973805Y-109030000D01*
X105091900Y-117660000D02*
X105091900Y-109030000D01*
X105210000Y-117660000D02*
X105210000Y-109030000D01*
X106120000Y-109030000D02*
X106120000Y-108620000D01*
X106840000Y-109030000D02*
X106840000Y-108620000D01*
X107750000Y-117660000D02*
X107750000Y-109030000D01*
X108660000Y-109030000D02*
X108660000Y-108620000D01*
X109380000Y-109030000D02*
X109380000Y-108620000D01*
X110290000Y-117660000D02*
X110290000Y-109030000D01*
X111200000Y-109030000D02*
X111200000Y-108620000D01*
X111920000Y-109030000D02*
X111920000Y-108620000D01*
X112890000Y-117660000D02*
X112890000Y-109030000D01*
%TO.C,R11*%
X124089000Y-101511359D02*
X124089000Y-101818641D01*
X124849000Y-101511359D02*
X124849000Y-101818641D01*
%TO.C,R15*%
X201797000Y-102390064D02*
X201797000Y-100935936D01*
X203617000Y-102390064D02*
X203617000Y-100935936D01*
%TO.C,C8*%
X95050420Y-100611000D02*
X95331580Y-100611000D01*
X95050420Y-101631000D02*
X95331580Y-101631000D01*
%TO.C,U7*%
X213805000Y-102213000D02*
X213005000Y-102213000D01*
X213805000Y-102213000D02*
X214605000Y-102213000D01*
X213805000Y-105333000D02*
X213005000Y-105333000D01*
X213805000Y-105333000D02*
X214605000Y-105333000D01*
X212505000Y-102263000D02*
X212265000Y-101933000D01*
X212745000Y-101933000D01*
X212505000Y-102263000D01*
G36*
X212505000Y-102263000D02*
G01*
X212265000Y-101933000D01*
X212745000Y-101933000D01*
X212505000Y-102263000D01*
G37*
%TO.C,R8*%
X114481000Y-98418641D02*
X114481000Y-98111359D01*
X115241000Y-98418641D02*
X115241000Y-98111359D01*
%TO.C,R3*%
X142856000Y-104203641D02*
X142856000Y-103896359D01*
X143616000Y-104203641D02*
X143616000Y-103896359D01*
%TO.C,JP9*%
X183890000Y-94434000D02*
X185220000Y-94434000D01*
X183890000Y-95764000D02*
X183890000Y-94434000D01*
X183890000Y-97034000D02*
X183890000Y-99634000D01*
X183890000Y-97034000D02*
X186550000Y-97034000D01*
X183890000Y-99634000D02*
X186550000Y-99634000D01*
X186550000Y-97034000D02*
X186550000Y-99634000D01*
%TO.C,C14*%
X162015000Y-88138420D02*
X162015000Y-88419580D01*
X163035000Y-88138420D02*
X163035000Y-88419580D01*
%TO.C,JP2*%
X116341000Y-95547000D02*
X116341000Y-94147000D01*
X117041000Y-93447000D02*
X117641000Y-93447000D01*
X117641000Y-96247000D02*
X117041000Y-96247000D01*
X118341000Y-94147000D02*
X118341000Y-95547000D01*
X116341000Y-94147000D02*
G75*
G02*
X117041000Y-93447000I699999J1D01*
G01*
X117041000Y-96247000D02*
G75*
G02*
X116341000Y-95547000I0J700000D01*
G01*
X117641000Y-93447000D02*
G75*
G02*
X118341000Y-94147000I1J-699999D01*
G01*
X118341000Y-95547000D02*
G75*
G02*
X117641000Y-96247000I-700000J0D01*
G01*
%TO.C,Q3*%
X168180000Y-106099000D02*
X168180000Y-116339000D01*
X171311000Y-106099000D02*
X171311000Y-116339000D01*
X172821000Y-106099000D02*
X168180000Y-106099000D01*
X172821000Y-106099000D02*
X172821000Y-116339000D01*
X172821000Y-109369000D02*
X171311000Y-109369000D01*
X172821000Y-113070000D02*
X171311000Y-113070000D01*
X172821000Y-116339000D02*
X168180000Y-116339000D01*
%TO.C,C2*%
X88087000Y-107555748D02*
X88087000Y-108978252D01*
X89907000Y-107555748D02*
X89907000Y-108978252D01*
%TO.C,C15*%
X151961000Y-92243748D02*
X151961000Y-93666252D01*
X153781000Y-92243748D02*
X153781000Y-93666252D01*
%TO.C,JP11*%
X191510000Y-94434000D02*
X192840000Y-94434000D01*
X191510000Y-95764000D02*
X191510000Y-94434000D01*
X191510000Y-97034000D02*
X191510000Y-99634000D01*
X191510000Y-97034000D02*
X194170000Y-97034000D01*
X191510000Y-99634000D02*
X194170000Y-99634000D01*
X194170000Y-97034000D02*
X194170000Y-99634000D01*
%TO.C,C23*%
X166973252Y-100290000D02*
X165550748Y-100290000D01*
X166973252Y-102110000D02*
X165550748Y-102110000D01*
%TO.C,C31*%
X166398252Y-94331000D02*
X164975748Y-94331000D01*
X166398252Y-96151000D02*
X164975748Y-96151000D01*
%TO.C,JP4*%
X174455000Y-108765000D02*
X174455000Y-107435000D01*
X175785000Y-108765000D02*
X174455000Y-108765000D01*
X177055000Y-106105000D02*
X179655000Y-106105000D01*
X177055000Y-108765000D02*
X177055000Y-106105000D01*
X177055000Y-108765000D02*
X179655000Y-108765000D01*
X179655000Y-108765000D02*
X179655000Y-106105000D01*
D11*
%TO.C,TP5*%
X203435000Y-95790000D02*
G75*
G02*
X199935000Y-95790000I-1750000J0D01*
G01*
X199935000Y-95790000D02*
G75*
G02*
X203435000Y-95790000I1750000J0D01*
G01*
D12*
%TO.C,C11*%
X121536420Y-95947000D02*
X121817580Y-95947000D01*
X121536420Y-96967000D02*
X121817580Y-96967000D01*
%TO.C,R12*%
X156059000Y-83101936D02*
X156059000Y-86156064D01*
X158779000Y-83101936D02*
X158779000Y-86156064D01*
%TO.C,JP1*%
X89697000Y-104203000D02*
X89697000Y-102803000D01*
X90397000Y-102103000D02*
X90997000Y-102103000D01*
X90997000Y-104903000D02*
X90397000Y-104903000D01*
X91697000Y-102803000D02*
X91697000Y-104203000D01*
X89697000Y-102803000D02*
G75*
G02*
X90397000Y-102103000I699999J1D01*
G01*
X90397000Y-104903000D02*
G75*
G02*
X89697000Y-104203000I0J700000D01*
G01*
X90997000Y-102103000D02*
G75*
G02*
X91697000Y-102803000I1J-699999D01*
G01*
X91697000Y-104203000D02*
G75*
G02*
X90997000Y-104903000I-700000J0D01*
G01*
%TO.C,Q1*%
X221384000Y-100115000D02*
X221384000Y-110355000D01*
X224515000Y-100115000D02*
X224515000Y-110355000D01*
X226025000Y-100115000D02*
X221384000Y-100115000D01*
X226025000Y-100115000D02*
X226025000Y-110355000D01*
X226025000Y-103385000D02*
X224515000Y-103385000D01*
X226025000Y-107086000D02*
X224515000Y-107086000D01*
X226025000Y-110355000D02*
X221384000Y-110355000D01*
%TO.C,R19*%
X178779000Y-113621000D02*
X178779000Y-113691000D01*
X180149000Y-112251000D02*
G75*
G02*
X177409000Y-112251000I-1370000J0D01*
G01*
X177409000Y-112251000D02*
G75*
G02*
X180149000Y-112251000I1370000J0D01*
G01*
%TO.C,U8*%
X167963000Y-86365000D02*
X166013000Y-86365000D01*
X167963000Y-86365000D02*
X169913000Y-86365000D01*
X167963000Y-91485000D02*
X166013000Y-91485000D01*
X167963000Y-91485000D02*
X169913000Y-91485000D01*
X165263000Y-86460000D02*
X165023000Y-86130000D01*
X165503000Y-86130000D01*
X165263000Y-86460000D01*
G36*
X165263000Y-86460000D02*
G01*
X165023000Y-86130000D01*
X165503000Y-86130000D01*
X165263000Y-86460000D01*
G37*
%TO.C,RV2*%
X154985000Y-89070000D02*
X160055000Y-89070000D01*
X154985000Y-98840000D02*
X154985000Y-89070000D01*
X154985000Y-98840000D02*
X160055000Y-98840000D01*
X160055000Y-98840000D02*
X160055000Y-89070000D01*
%TO.C,JP6*%
X172575000Y-95357000D02*
X172575000Y-92757000D01*
X175235000Y-92757000D02*
X172575000Y-92757000D01*
X175235000Y-95357000D02*
X172575000Y-95357000D01*
X175235000Y-95357000D02*
X175235000Y-92757000D01*
X175235000Y-96627000D02*
X175235000Y-97957000D01*
X175235000Y-97957000D02*
X173905000Y-97957000D01*
%TO.C,JP8*%
X180020000Y-94434000D02*
X181350000Y-94434000D01*
X180020000Y-95764000D02*
X180020000Y-94434000D01*
X180020000Y-97034000D02*
X180020000Y-99634000D01*
X180020000Y-97034000D02*
X182680000Y-97034000D01*
X180020000Y-99634000D02*
X182680000Y-99634000D01*
X182680000Y-97034000D02*
X182680000Y-99634000D01*
%TO.C,C1*%
X98401000Y-108247748D02*
X98401000Y-109670252D01*
X100221000Y-108247748D02*
X100221000Y-109670252D01*
%TO.C,C4*%
X88743580Y-85773000D02*
X88462420Y-85773000D01*
X88743580Y-86793000D02*
X88462420Y-86793000D01*
%TO.C,C9*%
X99790252Y-102419000D02*
X98367748Y-102419000D01*
X99790252Y-104239000D02*
X98367748Y-104239000D01*
%TO.C,J6*%
X138170000Y-106460000D02*
X139500000Y-106460000D01*
X138170000Y-107570000D02*
X138170000Y-106460000D01*
X138170000Y-109030000D02*
X148450000Y-109030000D01*
X138170000Y-117660000D02*
X138170000Y-109030000D01*
X138170000Y-117660000D02*
X148450000Y-117660000D01*
X138290000Y-117660000D02*
X138290000Y-109030000D01*
X138408095Y-117660000D02*
X138408095Y-109030000D01*
X138526190Y-117660000D02*
X138526190Y-109030000D01*
X138644285Y-117660000D02*
X138644285Y-109030000D01*
X138762380Y-117660000D02*
X138762380Y-109030000D01*
X138880475Y-117660000D02*
X138880475Y-109030000D01*
X138998570Y-117660000D02*
X138998570Y-109030000D01*
X139116665Y-117660000D02*
X139116665Y-109030000D01*
X139140000Y-109030000D02*
X139140000Y-108680000D01*
X139234760Y-117660000D02*
X139234760Y-109030000D01*
X139352855Y-117660000D02*
X139352855Y-109030000D01*
X139470950Y-117660000D02*
X139470950Y-109030000D01*
X139589045Y-117660000D02*
X139589045Y-109030000D01*
X139707140Y-117660000D02*
X139707140Y-109030000D01*
X139825235Y-117660000D02*
X139825235Y-109030000D01*
X139860000Y-109030000D02*
X139860000Y-108680000D01*
X139943330Y-117660000D02*
X139943330Y-109030000D01*
X140061425Y-117660000D02*
X140061425Y-109030000D01*
X140179520Y-117660000D02*
X140179520Y-109030000D01*
X140297615Y-117660000D02*
X140297615Y-109030000D01*
X140415710Y-117660000D02*
X140415710Y-109030000D01*
X140533805Y-117660000D02*
X140533805Y-109030000D01*
X140651900Y-117660000D02*
X140651900Y-109030000D01*
X140770000Y-117660000D02*
X140770000Y-109030000D01*
X141680000Y-109030000D02*
X141680000Y-108620000D01*
X142400000Y-109030000D02*
X142400000Y-108620000D01*
X143310000Y-117660000D02*
X143310000Y-109030000D01*
X144220000Y-109030000D02*
X144220000Y-108620000D01*
X144940000Y-109030000D02*
X144940000Y-108620000D01*
X145850000Y-117660000D02*
X145850000Y-109030000D01*
X146760000Y-109030000D02*
X146760000Y-108620000D01*
X147480000Y-109030000D02*
X147480000Y-108620000D01*
X148450000Y-117660000D02*
X148450000Y-109030000D01*
%TO.C,C27*%
X199760000Y-108551437D02*
X199760000Y-116207000D01*
X199760000Y-116207000D02*
X202610000Y-116207000D01*
X200824437Y-107487000D02*
X199760000Y-108551437D01*
X200824437Y-107487000D02*
X202610000Y-107487000D01*
X206630000Y-106247000D02*
X206630000Y-107247000D01*
X207130000Y-106747000D02*
X206130000Y-106747000D01*
X207415563Y-107487000D02*
X205630000Y-107487000D01*
X207415563Y-107487000D02*
X208480000Y-108551437D01*
X208480000Y-108551437D02*
X208480000Y-116207000D01*
X208480000Y-116207000D02*
X205630000Y-116207000D01*
%TO.C,D3*%
X143845000Y-102264000D02*
X143845000Y-104549000D01*
X145315000Y-102264000D02*
X143845000Y-102264000D01*
X145315000Y-104549000D02*
X145315000Y-102264000D01*
%TO.C,C28*%
X171541580Y-83877000D02*
X171260420Y-83877000D01*
X171541580Y-84897000D02*
X171260420Y-84897000D01*
%TO.C,R4*%
X88171000Y-104390641D02*
X88171000Y-104083359D01*
X88931000Y-104390641D02*
X88931000Y-104083359D01*
%TO.C,C5*%
X84125000Y-100602252D02*
X84125000Y-99179748D01*
X85945000Y-100602252D02*
X85945000Y-99179748D01*
%TO.C,C30*%
X173683000Y-84744252D02*
X173683000Y-83321748D01*
X175503000Y-84744252D02*
X175503000Y-83321748D01*
%TO.C,J3*%
X128011000Y-80340000D02*
X128011000Y-88970000D01*
X128011000Y-80340000D02*
X138291000Y-80340000D01*
X128011000Y-88970000D02*
X138291000Y-88970000D01*
X128011000Y-90430000D02*
X128011000Y-91540000D01*
X128011000Y-91540000D02*
X129341000Y-91540000D01*
X128131000Y-80340000D02*
X128131000Y-88970000D01*
X128249095Y-80340000D02*
X128249095Y-88970000D01*
X128367190Y-80340000D02*
X128367190Y-88970000D01*
X128485285Y-80340000D02*
X128485285Y-88970000D01*
X128603380Y-80340000D02*
X128603380Y-88970000D01*
X128721475Y-80340000D02*
X128721475Y-88970000D01*
X128839570Y-80340000D02*
X128839570Y-88970000D01*
X128957665Y-80340000D02*
X128957665Y-88970000D01*
X128981000Y-88970000D02*
X128981000Y-89320000D01*
X129075760Y-80340000D02*
X129075760Y-88970000D01*
X129193855Y-80340000D02*
X129193855Y-88970000D01*
X129311950Y-80340000D02*
X129311950Y-88970000D01*
X129430045Y-80340000D02*
X129430045Y-88970000D01*
X129548140Y-80340000D02*
X129548140Y-88970000D01*
X129666235Y-80340000D02*
X129666235Y-88970000D01*
X129701000Y-88970000D02*
X129701000Y-89320000D01*
X129784330Y-80340000D02*
X129784330Y-88970000D01*
X129902425Y-80340000D02*
X129902425Y-88970000D01*
X130020520Y-80340000D02*
X130020520Y-88970000D01*
X130138615Y-80340000D02*
X130138615Y-88970000D01*
X130256710Y-80340000D02*
X130256710Y-88970000D01*
X130374805Y-80340000D02*
X130374805Y-88970000D01*
X130492900Y-80340000D02*
X130492900Y-88970000D01*
X130611000Y-80340000D02*
X130611000Y-88970000D01*
X131521000Y-88970000D02*
X131521000Y-89380000D01*
X132241000Y-88970000D02*
X132241000Y-89380000D01*
X133151000Y-80340000D02*
X133151000Y-88970000D01*
X134061000Y-88970000D02*
X134061000Y-89380000D01*
X134781000Y-88970000D02*
X134781000Y-89380000D01*
X135691000Y-80340000D02*
X135691000Y-88970000D01*
X136601000Y-88970000D02*
X136601000Y-89380000D01*
X137321000Y-88970000D02*
X137321000Y-89380000D01*
X138291000Y-80340000D02*
X138291000Y-88970000D01*
%TO.C,D2*%
X136225000Y-102264000D02*
X136225000Y-104549000D01*
X137695000Y-102264000D02*
X136225000Y-102264000D01*
X137695000Y-104549000D02*
X137695000Y-102264000D01*
D11*
%TO.C,TP1*%
X85603000Y-106425000D02*
G75*
G02*
X82103000Y-106425000I-1750000J0D01*
G01*
X82103000Y-106425000D02*
G75*
G02*
X85603000Y-106425000I1750000J0D01*
G01*
%TO.C,TP3*%
X178595000Y-89249000D02*
G75*
G02*
X175095000Y-89249000I-1750000J0D01*
G01*
X175095000Y-89249000D02*
G75*
G02*
X178595000Y-89249000I1750000J0D01*
G01*
D12*
%TO.C,R24*%
X196372000Y-85496936D02*
X196372000Y-86951064D01*
X198192000Y-85496936D02*
X198192000Y-86951064D01*
%TO.C,U4*%
X118183000Y-101321000D02*
X118183000Y-99371000D01*
X118183000Y-101321000D02*
X118183000Y-103271000D01*
X123303000Y-101321000D02*
X123303000Y-99371000D01*
X123303000Y-101321000D02*
X123303000Y-103271000D01*
X123538000Y-98861000D02*
X123208000Y-98621000D01*
X123538000Y-98381000D01*
X123538000Y-98861000D01*
G36*
X123538000Y-98861000D02*
G01*
X123208000Y-98621000D01*
X123538000Y-98381000D01*
X123538000Y-98861000D01*
G37*
%TO.C,R9*%
X114451000Y-96264641D02*
X114451000Y-95957359D01*
X115211000Y-96264641D02*
X115211000Y-95957359D01*
%TO.C,C29*%
X165373580Y-92523000D02*
X165092420Y-92523000D01*
X165373580Y-93543000D02*
X165092420Y-93543000D01*
%TO.C,J10*%
X191510000Y-80340000D02*
X191510000Y-88970000D01*
X191625445Y-80340000D02*
X191625445Y-88970000D01*
X191740900Y-80340000D02*
X191740900Y-88970000D01*
X191856355Y-80340000D02*
X191856355Y-88970000D01*
X191971810Y-80340000D02*
X191971810Y-88970000D01*
X192087265Y-80340000D02*
X192087265Y-88970000D01*
X192202720Y-80340000D02*
X192202720Y-88970000D01*
X192318175Y-80340000D02*
X192318175Y-88970000D01*
X192433630Y-80340000D02*
X192433630Y-88970000D01*
X192480000Y-88970000D02*
X192480000Y-89320000D01*
X192549085Y-80340000D02*
X192549085Y-88970000D01*
X192664540Y-80340000D02*
X192664540Y-88970000D01*
X192779995Y-80340000D02*
X192779995Y-88970000D01*
X192895450Y-80340000D02*
X192895450Y-88970000D01*
X193010905Y-80340000D02*
X193010905Y-88970000D01*
X193126360Y-80340000D02*
X193126360Y-88970000D01*
X193200000Y-88970000D02*
X193200000Y-89320000D01*
X193241815Y-80340000D02*
X193241815Y-88970000D01*
X193357270Y-80340000D02*
X193357270Y-88970000D01*
X193472725Y-80340000D02*
X193472725Y-88970000D01*
X193588180Y-80340000D02*
X193588180Y-88970000D01*
X193703635Y-80340000D02*
X193703635Y-88970000D01*
X193819090Y-80340000D02*
X193819090Y-88970000D01*
X193934545Y-80340000D02*
X193934545Y-88970000D01*
X194050000Y-80340000D02*
X194050000Y-88970000D01*
X194170000Y-80340000D02*
X191510000Y-80340000D01*
X194170000Y-80340000D02*
X194170000Y-88970000D01*
X194170000Y-88970000D02*
X191510000Y-88970000D01*
X194170000Y-90430000D02*
X194170000Y-91540000D01*
X194170000Y-91540000D02*
X192840000Y-91540000D01*
%TO.C,C21*%
X166612580Y-102858000D02*
X166331420Y-102858000D01*
X166612580Y-103878000D02*
X166331420Y-103878000D01*
%TO.C,C20*%
X163414000Y-110957420D02*
X163414000Y-111238580D01*
X164434000Y-110957420D02*
X164434000Y-111238580D01*
%TO.C,C26*%
X199760000Y-82941437D02*
X199760000Y-90597000D01*
X199760000Y-90597000D02*
X202610000Y-90597000D01*
X200824437Y-81877000D02*
X199760000Y-82941437D01*
X200824437Y-81877000D02*
X202610000Y-81877000D01*
X206630000Y-80637000D02*
X206630000Y-81637000D01*
X207130000Y-81137000D02*
X206130000Y-81137000D01*
X207415563Y-81877000D02*
X205630000Y-81877000D01*
X207415563Y-81877000D02*
X208480000Y-82941437D01*
X208480000Y-82941437D02*
X208480000Y-90597000D01*
X208480000Y-90597000D02*
X205630000Y-90597000D01*
%TO.C,JP3*%
X123821000Y-106857000D02*
X125151000Y-106857000D01*
X123821000Y-108187000D02*
X123821000Y-106857000D01*
X123821000Y-109457000D02*
X123821000Y-112057000D01*
X123821000Y-109457000D02*
X126481000Y-109457000D01*
X123821000Y-112057000D02*
X126481000Y-112057000D01*
X126481000Y-109457000D02*
X126481000Y-112057000D01*
%TO.C,R7*%
X114463000Y-100482641D02*
X114463000Y-100175359D01*
X115223000Y-100482641D02*
X115223000Y-100175359D01*
%TO.C,C7*%
X98441580Y-100611000D02*
X98160420Y-100611000D01*
X98441580Y-101631000D02*
X98160420Y-101631000D01*
%TO.C,R25*%
X196372000Y-111515936D02*
X196372000Y-112970064D01*
X198192000Y-111515936D02*
X198192000Y-112970064D01*
D11*
%TO.C,TP2*%
X122555000Y-110879000D02*
G75*
G02*
X119055000Y-110879000I-1750000J0D01*
G01*
X119055000Y-110879000D02*
G75*
G02*
X122555000Y-110879000I1750000J0D01*
G01*
D12*
%TO.C,R5*%
X88171000Y-102228641D02*
X88171000Y-101921359D01*
X88931000Y-102228641D02*
X88931000Y-101921359D01*
%TO.C,J1*%
X102611000Y-80340000D02*
X102611000Y-88970000D01*
X102611000Y-80340000D02*
X112891000Y-80340000D01*
X102611000Y-88970000D02*
X112891000Y-88970000D01*
X102611000Y-90430000D02*
X102611000Y-91540000D01*
X102611000Y-91540000D02*
X103941000Y-91540000D01*
X102731000Y-80340000D02*
X102731000Y-88970000D01*
X102849095Y-80340000D02*
X102849095Y-88970000D01*
X102967190Y-80340000D02*
X102967190Y-88970000D01*
X103085285Y-80340000D02*
X103085285Y-88970000D01*
X103203380Y-80340000D02*
X103203380Y-88970000D01*
X103321475Y-80340000D02*
X103321475Y-88970000D01*
X103439570Y-80340000D02*
X103439570Y-88970000D01*
X103557665Y-80340000D02*
X103557665Y-88970000D01*
X103581000Y-88970000D02*
X103581000Y-89320000D01*
X103675760Y-80340000D02*
X103675760Y-88970000D01*
X103793855Y-80340000D02*
X103793855Y-88970000D01*
X103911950Y-80340000D02*
X103911950Y-88970000D01*
X104030045Y-80340000D02*
X104030045Y-88970000D01*
X104148140Y-80340000D02*
X104148140Y-88970000D01*
X104266235Y-80340000D02*
X104266235Y-88970000D01*
X104301000Y-88970000D02*
X104301000Y-89320000D01*
X104384330Y-80340000D02*
X104384330Y-88970000D01*
X104502425Y-80340000D02*
X104502425Y-88970000D01*
X104620520Y-80340000D02*
X104620520Y-88970000D01*
X104738615Y-80340000D02*
X104738615Y-88970000D01*
X104856710Y-80340000D02*
X104856710Y-88970000D01*
X104974805Y-80340000D02*
X104974805Y-88970000D01*
X105092900Y-80340000D02*
X105092900Y-88970000D01*
X105211000Y-80340000D02*
X105211000Y-88970000D01*
X106121000Y-88970000D02*
X106121000Y-89380000D01*
X106841000Y-88970000D02*
X106841000Y-89380000D01*
X107751000Y-80340000D02*
X107751000Y-88970000D01*
X108661000Y-88970000D02*
X108661000Y-89380000D01*
X109381000Y-88970000D02*
X109381000Y-89380000D01*
X110291000Y-80340000D02*
X110291000Y-88970000D01*
X111201000Y-88970000D02*
X111201000Y-89380000D01*
X111921000Y-88970000D02*
X111921000Y-89380000D01*
X112891000Y-80340000D02*
X112891000Y-88970000D01*
%TD*%
%LPC*%
D13*
%TO.C,U3*%
X91154000Y-98920000D03*
X92424000Y-98920000D03*
X93694000Y-98920000D03*
X94964000Y-98920000D03*
X96234000Y-98920000D03*
X97504000Y-98920000D03*
X98774000Y-98920000D03*
X100044000Y-98920000D03*
X100044000Y-93970000D03*
X98774000Y-93970000D03*
X97504000Y-93970000D03*
X96234000Y-93970000D03*
X94964000Y-93970000D03*
X93694000Y-93970000D03*
X92424000Y-93970000D03*
X91154000Y-93970000D03*
%TD*%
D14*
%TO.C,C3*%
X88006000Y-91105000D03*
X85056000Y-91105000D03*
%TD*%
D15*
%TO.C,R21*%
X221405000Y-93825000D03*
D16*
X211245000Y-93825000D03*
%TD*%
D17*
%TO.C,TP4*%
X175427000Y-101529000D03*
%TD*%
D18*
%TO.C,U6*%
X166174500Y-107346000D03*
X166174500Y-106396000D03*
X166174500Y-105446000D03*
X163899500Y-105446000D03*
X163899500Y-107346000D03*
%TD*%
D19*
%TO.C,R22*%
X212679000Y-107646500D03*
X212679000Y-112271500D03*
%TD*%
D20*
%TO.C,R10*%
X114833000Y-94303000D03*
X114833000Y-93283000D03*
%TD*%
D21*
%TO.C,R1*%
X134420000Y-100389000D03*
X134420000Y-101409000D03*
%TD*%
D22*
%TO.C,D1*%
X134420000Y-102961500D03*
X134420000Y-104536500D03*
%TD*%
D23*
%TO.C,C13*%
X120580000Y-92817000D03*
X123530000Y-92817000D03*
%TD*%
D24*
%TO.C,J7*%
X182680000Y-90430000D03*
D25*
X185220000Y-90430000D03*
X187760000Y-90430000D03*
X190300000Y-90430000D03*
%TD*%
D24*
%TO.C,J5*%
X139500000Y-90430000D03*
D25*
X142040000Y-90430000D03*
X144580000Y-90430000D03*
X147120000Y-90430000D03*
%TD*%
D26*
%TO.C,C22*%
X160954000Y-111453000D03*
X160954000Y-114403000D03*
%TD*%
D20*
%TO.C,R2*%
X136960000Y-101409000D03*
X136960000Y-100389000D03*
%TD*%
D27*
%TO.C,RV1*%
X156245000Y-101915000D03*
X158785000Y-104455000D03*
X156245000Y-106995000D03*
%TD*%
D28*
%TO.C,C25*%
X210327000Y-102438000D03*
X210327000Y-100888000D03*
%TD*%
D29*
%TO.C,U1*%
X96423000Y-107246000D03*
D30*
X94143000Y-113546000D03*
D29*
X91863000Y-107246000D03*
%TD*%
D24*
%TO.C,J9*%
X129340000Y-92970000D03*
D25*
X131880000Y-92970000D03*
X134420000Y-92970000D03*
X136960000Y-92970000D03*
X139500000Y-92970000D03*
X142040000Y-92970000D03*
X144580000Y-92970000D03*
X147120000Y-92970000D03*
%TD*%
D31*
%TO.C,C6*%
X88902000Y-98365000D03*
X87352000Y-98365000D03*
%TD*%
D32*
%TO.C,R23*%
X212025000Y-115461000D03*
D33*
X214565000Y-115461000D03*
%TD*%
D24*
%TO.C,J4*%
X129340000Y-107570000D03*
D25*
X131880000Y-107570000D03*
X134420000Y-107570000D03*
X136960000Y-107570000D03*
%TD*%
D13*
%TO.C,U2*%
X91154000Y-90870000D03*
X92424000Y-90870000D03*
X93694000Y-90870000D03*
X94964000Y-90870000D03*
X96234000Y-90870000D03*
X97504000Y-90870000D03*
X98774000Y-90870000D03*
X100044000Y-90870000D03*
X100044000Y-85920000D03*
X98774000Y-85920000D03*
X97504000Y-85920000D03*
X96234000Y-85920000D03*
X94964000Y-85920000D03*
X93694000Y-85920000D03*
X92424000Y-85920000D03*
X91154000Y-85920000D03*
%TD*%
D31*
%TO.C,C10*%
X121680000Y-106363000D03*
X120130000Y-106363000D03*
%TD*%
D34*
%TO.C,C12*%
X117303000Y-109160000D03*
X117303000Y-106210000D03*
%TD*%
D24*
%TO.C,JP10*%
X189030000Y-95764000D03*
D25*
X189030000Y-98304000D03*
%TD*%
D35*
%TO.C,R6*%
X87811000Y-95381000D03*
X86791000Y-95381000D03*
%TD*%
D34*
%TO.C,C24*%
X206599000Y-103138000D03*
X206599000Y-100188000D03*
%TD*%
D21*
%TO.C,R17*%
X174385000Y-113291000D03*
X174385000Y-114311000D03*
%TD*%
D24*
%TO.C,J8*%
X182680000Y-107570000D03*
D25*
X185220000Y-107570000D03*
X187760000Y-107570000D03*
X190300000Y-107570000D03*
%TD*%
D36*
%TO.C,R18*%
X217739000Y-101750500D03*
X217739000Y-104675500D03*
%TD*%
D24*
%TO.C,J2*%
X103940000Y-107570000D03*
D25*
X106480000Y-107570000D03*
X109020000Y-107570000D03*
X111560000Y-107570000D03*
%TD*%
D21*
%TO.C,R11*%
X124469000Y-101155000D03*
X124469000Y-102175000D03*
%TD*%
D37*
%TO.C,H4*%
X221000000Y-114000000D03*
%TD*%
D38*
%TO.C,R15*%
X202707000Y-103125500D03*
X202707000Y-100200500D03*
%TD*%
D39*
%TO.C,C8*%
X94416000Y-101121000D03*
X95966000Y-101121000D03*
%TD*%
D40*
%TO.C,U7*%
X212667500Y-102823000D03*
X212667500Y-103773000D03*
X212667500Y-104723000D03*
X214942500Y-104723000D03*
X214942500Y-102823000D03*
%TD*%
D20*
%TO.C,R8*%
X114861000Y-98775000D03*
X114861000Y-97755000D03*
%TD*%
%TO.C,R3*%
X143236000Y-104560000D03*
X143236000Y-103540000D03*
%TD*%
D24*
%TO.C,JP9*%
X185220000Y-95764000D03*
D25*
X185220000Y-98304000D03*
%TD*%
D41*
%TO.C,C14*%
X162525000Y-87504000D03*
X162525000Y-89054000D03*
%TD*%
D42*
%TO.C,JP2*%
X117341000Y-94197000D03*
D43*
X117341000Y-95497000D03*
%TD*%
D37*
%TO.C,H1*%
X81000000Y-84000000D03*
%TD*%
D44*
%TO.C,Q3*%
X169551000Y-108679000D03*
D45*
X169551000Y-111219000D03*
X169551000Y-113759000D03*
%TD*%
D26*
%TO.C,C2*%
X88997000Y-106792000D03*
X88997000Y-109742000D03*
%TD*%
%TO.C,C15*%
X152871000Y-91480000D03*
X152871000Y-94430000D03*
%TD*%
D24*
%TO.C,JP11*%
X192840000Y-95764000D03*
D25*
X192840000Y-98304000D03*
%TD*%
D14*
%TO.C,C23*%
X167737000Y-101200000D03*
X164787000Y-101200000D03*
%TD*%
%TO.C,C31*%
X167162000Y-95241000D03*
X164212000Y-95241000D03*
%TD*%
D24*
%TO.C,JP4*%
X175785000Y-107435000D03*
D25*
X178325000Y-107435000D03*
%TD*%
D17*
%TO.C,TP5*%
X201685000Y-95790000D03*
%TD*%
D39*
%TO.C,C11*%
X120902000Y-96457000D03*
X122452000Y-96457000D03*
%TD*%
D19*
%TO.C,R12*%
X157419000Y-82316500D03*
X157419000Y-86941500D03*
%TD*%
D42*
%TO.C,JP1*%
X90697000Y-102853000D03*
D43*
X90697000Y-104153000D03*
%TD*%
D44*
%TO.C,Q1*%
X222755000Y-102695000D03*
D45*
X222755000Y-105235000D03*
X222755000Y-107775000D03*
%TD*%
D32*
%TO.C,R19*%
X178779000Y-112251000D03*
D33*
X178779000Y-114791000D03*
%TD*%
D46*
%TO.C,U8*%
X165488000Y-87020000D03*
X165488000Y-88290000D03*
X165488000Y-89560000D03*
X165488000Y-90830000D03*
X170438000Y-90830000D03*
X170438000Y-89560000D03*
X170438000Y-88290000D03*
X170438000Y-87020000D03*
%TD*%
D27*
%TO.C,RV2*%
X156245000Y-91415000D03*
X158785000Y-93955000D03*
X156245000Y-96495000D03*
%TD*%
D24*
%TO.C,JP6*%
X173905000Y-96627000D03*
D25*
X173905000Y-94087000D03*
%TD*%
D24*
%TO.C,JP8*%
X181350000Y-95764000D03*
D25*
X181350000Y-98304000D03*
%TD*%
D26*
%TO.C,C1*%
X99311000Y-107484000D03*
X99311000Y-110434000D03*
%TD*%
D31*
%TO.C,C4*%
X89378000Y-86283000D03*
X87828000Y-86283000D03*
%TD*%
D14*
%TO.C,C9*%
X100554000Y-103329000D03*
X97604000Y-103329000D03*
%TD*%
D24*
%TO.C,J6*%
X139500000Y-107570000D03*
D25*
X142040000Y-107570000D03*
X144580000Y-107570000D03*
X147120000Y-107570000D03*
%TD*%
D47*
%TO.C,C27*%
X204120000Y-108147000D03*
X204120000Y-115547000D03*
%TD*%
D22*
%TO.C,D3*%
X144580000Y-102961500D03*
X144580000Y-104536500D03*
%TD*%
D31*
%TO.C,C28*%
X172176000Y-84387000D03*
X170626000Y-84387000D03*
%TD*%
D20*
%TO.C,R4*%
X88551000Y-104747000D03*
X88551000Y-103727000D03*
%TD*%
D34*
%TO.C,C5*%
X85035000Y-101366000D03*
X85035000Y-98416000D03*
%TD*%
%TO.C,C30*%
X174593000Y-85508000D03*
X174593000Y-82558000D03*
%TD*%
D37*
%TO.C,H2*%
X81000000Y-114000000D03*
%TD*%
D24*
%TO.C,J3*%
X129340000Y-90430000D03*
D25*
X131880000Y-90430000D03*
X134420000Y-90430000D03*
X136960000Y-90430000D03*
%TD*%
D22*
%TO.C,D2*%
X136960000Y-102961500D03*
X136960000Y-104536500D03*
%TD*%
D17*
%TO.C,TP1*%
X83853000Y-106425000D03*
%TD*%
%TO.C,TP3*%
X176845000Y-89249000D03*
%TD*%
D36*
%TO.C,R24*%
X197282000Y-84761500D03*
X197282000Y-87686500D03*
%TD*%
D48*
%TO.C,U4*%
X122648000Y-98846000D03*
X121378000Y-98846000D03*
X120108000Y-98846000D03*
X118838000Y-98846000D03*
X118838000Y-103796000D03*
X120108000Y-103796000D03*
X121378000Y-103796000D03*
X122648000Y-103796000D03*
%TD*%
D20*
%TO.C,R9*%
X114831000Y-96621000D03*
X114831000Y-95601000D03*
%TD*%
D31*
%TO.C,C29*%
X166008000Y-93033000D03*
X164458000Y-93033000D03*
%TD*%
D24*
%TO.C,J10*%
X192840000Y-90430000D03*
%TD*%
D31*
%TO.C,C21*%
X167247000Y-103368000D03*
X165697000Y-103368000D03*
%TD*%
D41*
%TO.C,C20*%
X163924000Y-110323000D03*
X163924000Y-111873000D03*
%TD*%
D47*
%TO.C,C26*%
X204120000Y-82537000D03*
X204120000Y-89937000D03*
%TD*%
D24*
%TO.C,JP3*%
X125151000Y-108187000D03*
D25*
X125151000Y-110727000D03*
%TD*%
D20*
%TO.C,R7*%
X114843000Y-100839000D03*
X114843000Y-99819000D03*
%TD*%
D31*
%TO.C,C7*%
X99076000Y-101121000D03*
X97526000Y-101121000D03*
%TD*%
D36*
%TO.C,R25*%
X197282000Y-110780500D03*
X197282000Y-113705500D03*
%TD*%
D17*
%TO.C,TP2*%
X120805000Y-110879000D03*
%TD*%
D20*
%TO.C,R5*%
X88551000Y-102585000D03*
X88551000Y-101565000D03*
%TD*%
D37*
%TO.C,H3*%
X221000000Y-84000000D03*
%TD*%
D24*
%TO.C,J1*%
X103940000Y-90430000D03*
D25*
X106480000Y-90430000D03*
X109020000Y-90430000D03*
X111560000Y-90430000D03*
%TD*%
%LPD*%
M02*
